<svg width="16" height="16" viewBox="0 0 16 16" fill="none" xmlns="http://www.w3.org/2000/svg">
<path fill-rule="evenodd" clip-rule="evenodd" d="M4.84173 2.17331C4.92146 1.41997 5.55885 0.833008 6.33333 0.833008H9.66667C10.4411 0.833008 11.0785 1.41997 11.1583 2.17331C11.667 2.18367 12.1069 2.20998 12.4824 2.27897C12.9878 2.37179 13.4178 2.54862 13.7678 2.89857C14.169 3.29985 14.3416 3.8051 14.4223 4.40517C14.5 4.98315 14.5 5.71803 14.5 6.62976V10.7029C14.5 11.6146 14.5 12.3495 14.4223 12.9275C14.3416 13.5276 14.169 14.0328 13.7678 14.4341C13.3665 14.8354 12.8612 15.008 12.2612 15.0887C11.6832 15.1664 10.9483 15.1664 10.0366 15.1663H5.96342C5.05169 15.1664 4.31681 15.1664 3.73883 15.0887C3.13876 15.008 2.63351 14.8354 2.23223 14.4341C1.83096 14.0328 1.65836 13.5276 1.57768 12.9275C1.49998 12.3495 1.49999 11.6146 1.5 10.7029V6.62976C1.49999 5.71803 1.49998 4.98315 1.57768 4.40517C1.65836 3.8051 1.83096 3.29985 2.23223 2.89857C2.58219 2.54862 3.01224 2.37179 3.51757 2.27897C3.89315 2.20998 4.33301 2.18367 4.84173 2.17331ZM4.84331 3.17358C4.36452 3.18381 3.99557 3.2079 3.69823 3.26252C3.32036 3.33193 3.10164 3.44338 2.93934 3.60568C2.75483 3.79019 2.63453 4.04924 2.56877 4.53842C2.50106 5.04199 2.5 5.7094 2.5 6.66634V10.6663C2.5 11.6233 2.50106 12.2907 2.56877 12.7943C2.63453 13.2834 2.75483 13.5425 2.93934 13.727C3.12385 13.9115 3.3829 14.0318 3.87208 14.0976C4.37565 14.1653 5.04306 14.1663 6 14.1663H10C10.9569 14.1663 11.6244 14.1653 12.1279 14.0976C12.6171 14.0318 12.8762 13.9115 13.0607 13.727C13.2452 13.5425 13.3655 13.2834 13.4312 12.7943C13.4989 12.2907 13.5 11.6233 13.5 10.6663V6.66634C13.5 5.7094 13.4989 5.04199 13.4312 4.53842C13.3655 4.04924 13.2452 3.79019 13.0607 3.60568C12.8984 3.44338 12.6796 3.33193 12.3018 3.26252C12.0044 3.2079 11.6355 3.18381 11.1567 3.17358C11.0705 3.92009 10.4363 4.49967 9.66667 4.49967H6.33333C5.56373 4.49967 4.9295 3.92009 4.84331 3.17358ZM6.33333 1.83301C6.05719 1.83301 5.83333 2.05687 5.83333 2.33301V2.99967C5.83333 3.27582 6.05719 3.49967 6.33333 3.49967H9.66667C9.94281 3.49967 10.1667 3.27582 10.1667 2.99967V2.33301C10.1667 2.05687 9.94281 1.83301 9.66667 1.83301H6.33333ZM4.16667 6.99967C4.16667 6.72353 4.39052 6.49967 4.66667 6.49967H11.3333C11.6095 6.49967 11.8333 6.72353 11.8333 6.99967C11.8333 7.27582 11.6095 7.49967 11.3333 7.49967H4.66667C4.39052 7.49967 4.16667 7.27582 4.16667 6.99967ZM4.83333 9.33301C4.83333 9.05686 5.05719 8.83301 5.33333 8.83301H10.6667C10.9428 8.83301 11.1667 9.05686 11.1667 9.33301C11.1667 9.60915 10.9428 9.83301 10.6667 9.83301H5.33333C5.05719 9.83301 4.83333 9.60915 4.83333 9.33301ZM5.5 11.6663C5.5 11.3902 5.72386 11.1663 6 11.1663H10C10.2761 11.1663 10.5 11.3902 10.5 11.6663C10.5 11.9425 10.2761 12.1663 10 12.1663H6C5.72386 12.1663 5.5 11.9425 5.5 11.6663Z" fill="black"/>
</svg>
