<svg width="43" height="43" viewBox="0 0 43 43" fill="none" xmlns="http://www.w3.org/2000/svg">
<g clip-path="url(#clip0_1748_29869)">
<rect width="43" height="43" rx="8" fill="url(#paint0_linear_1748_29869)"/>
<path d="M23.0576 7.12403C22.4843 4.6157 25.2029 2.69087 28.0026 4.01226C34.596 7.12403 30.77 11.7824 28.405 11.2807C26.04 10.779 23.631 9.63236 23.0576 7.12403Z" fill="url(#paint1_linear_1748_29869)"/>
<path d="M24.6535 22.9335C21.5743 24.4129 21.1251 24.3336 14.3335 18.7769C4.08518 10.3919 13.7602 2.72353 24.1518 6.80853C35.4035 11.7535 31.634 19.5805 24.6535 22.9335Z" fill="url(#paint2_linear_1748_29869)"/>
<path d="M24.9411 28.8105C23.8901 31.1039 22.5522 32.2505 21.5011 32.2505C20.4501 32.2505 19.1122 31.1039 18.0611 28.8105V25.9439C18.0611 25.9439 17.5934 25.9582 17.2728 25.9439C13.9201 25.8005 12.7998 20.4073 13.326 15.013C13.7113 11.0624 17.0578 16.4839 22.5045 12.6855C22.2895 16.8422 24.0811 16.4122 24.8695 15.9105C28.4528 14.2622 28.5245 20.9989 24.9828 20.4769C24.9837 20.5485 24.9698 23.3264 24.9411 28.8105Z" fill="url(#paint3_linear_1748_29869)"/>
<path d="M18.0605 25.9436C19.3505 25.8481 20.9575 25.1266 22.8814 23.7793C22.2918 25.8096 20.6849 27.0088 18.0605 27.377V25.9436Z" fill="#FF9768"/>
<path d="M16.8756 29.6444C16.8756 29.6444 17.0918 28.1513 17.599 28.0234C18.1061 27.8956 21.0699 27.8801 21.0725 28.4534C21.0725 28.5586 21.1746 29.6861 21.5125 29.6861C21.8505 29.6861 21.9374 28.5581 21.938 28.4534C21.9407 27.8801 24.8873 27.9022 25.4115 28.0234C25.9357 28.1447 26.1327 29.6463 26.1327 29.6463C26.1327 29.6463 33.8727 33.2908 34.6873 34.8465C35.388 36.1843 35.9136 39.2899 36.264 44.1632H6.7373C7.08771 39.2899 7.61326 36.1843 8.31397 34.8465C9.12853 33.2915 16.8756 29.6444 16.8756 29.6444Z" fill="url(#paint4_linear_1748_29869)"/>
<path d="M20.9277 39.417C20.9277 39.3036 20.9614 39.1928 21.0244 39.0985C21.0874 39.0042 21.1769 38.9307 21.2817 38.8873C21.3864 38.8439 21.5017 38.8326 21.6129 38.8547C21.7241 38.8768 21.8263 38.9314 21.9065 39.0116C21.9867 39.0918 22.0413 39.194 22.0634 39.3052C22.0855 39.4164 22.0742 39.5317 22.0308 39.6364C21.9874 39.7412 21.9139 39.8307 21.8196 39.8937C21.7253 39.9567 21.6145 39.9904 21.5011 39.9904C21.349 39.9904 21.2032 39.9299 21.0957 39.8224C20.9881 39.7149 20.9277 39.5691 20.9277 39.417ZM20.9277 36.5504C20.9277 36.437 20.9614 36.3261 21.0244 36.2318C21.0874 36.1375 21.1769 36.0641 21.2817 36.0207C21.3864 35.9773 21.5017 35.9659 21.6129 35.988C21.7241 36.0102 21.8263 36.0648 21.9065 36.1449C21.9867 36.2251 22.0413 36.3273 22.0634 36.4385C22.0855 36.5497 22.0742 36.665 22.0308 36.7698C21.9874 36.8745 21.9139 36.9641 21.8196 37.0271C21.7253 37.0901 21.6145 37.1237 21.5011 37.1237C21.349 37.1237 21.2032 37.0633 21.0957 36.9558C20.9881 36.8482 20.9277 36.7024 20.9277 36.5504ZM20.9277 33.6837C20.9277 33.5703 20.9614 33.4594 21.0244 33.3652C21.0874 33.2709 21.1769 33.1974 21.2817 33.154C21.3864 33.1106 21.5017 33.0992 21.6129 33.1214C21.7241 33.1435 21.8263 33.1981 21.9065 33.2783C21.9867 33.3585 22.0413 33.4606 22.0634 33.5718C22.0855 33.683 22.0742 33.7983 22.0308 33.9031C21.9874 34.0079 21.9139 34.0974 21.8196 34.1604C21.7253 34.2234 21.6145 34.257 21.5011 34.257C21.349 34.257 21.2032 34.1966 21.0957 34.0891C20.9881 33.9816 20.9277 33.8357 20.9277 33.6837Z" fill="#664F4D"/>
<path d="M23.0184 11.3851C20.725 17.1185 22.015 19.9135 23.8067 23.2818C25.5984 26.6501 23.3767 29.8035 23.3767 29.8035C23.3767 29.8035 25.9567 28.1551 25.9567 24.5001C25.9567 20.8451 23.3767 18.5518 25.5267 15.5418C27.6767 12.5318 25.3117 5.65182 23.0184 11.3851Z" fill="url(#paint5_linear_1748_29869)"/>
</g>
<defs>
<linearGradient id="paint0_linear_1748_29869" x1="21.5" y1="0" x2="21.5" y2="43" gradientUnits="userSpaceOnUse">
<stop stop-color="#806A6A"/>
<stop offset="1" stop-color="#665654"/>
</linearGradient>
<linearGradient id="paint1_linear_1748_29869" x1="27.3288" y1="3.58301" x2="27.3288" y2="11.3181" gradientUnits="userSpaceOnUse">
<stop stop-color="#1D0024"/>
<stop offset="1" stop-color="#100014"/>
</linearGradient>
<linearGradient id="paint2_linear_1748_29869" x1="20.6322" y1="5.67725" x2="20.6322" y2="23.7482" gradientUnits="userSpaceOnUse">
<stop stop-color="#1D0024"/>
<stop offset="1" stop-color="#100014"/>
</linearGradient>
<linearGradient id="paint3_linear_1748_29869" x1="20.4003" y1="12.6855" x2="20.4003" y2="32.2505" gradientUnits="userSpaceOnUse">
<stop stop-color="#F7B186"/>
<stop offset="1" stop-color="#FFC299"/>
</linearGradient>
<linearGradient id="paint4_linear_1748_29869" x1="21.5006" y1="44.1632" x2="21.5006" y2="27.9507" gradientUnits="userSpaceOnUse">
<stop stop-color="#FCF2EB"/>
<stop offset="1" stop-color="#FFF9F5"/>
</linearGradient>
<linearGradient id="paint5_linear_1748_29869" x1="24.0793" y1="9.17383" x2="24.0793" y2="29.8035" gradientUnits="userSpaceOnUse">
<stop stop-color="#1D0024"/>
<stop offset="1" stop-color="#100014"/>
</linearGradient>
<clipPath id="clip0_1748_29869">
<rect width="43" height="43" rx="8" fill="white"/>
</clipPath>
</defs>
</svg>
