<svg width="19" height="19" viewBox="0 0 19 19" fill="none" xmlns="http://www.w3.org/2000/svg">
<path d="M16.9974 14.1812C16.9974 14.4597 16.9355 14.746 16.8039 15.0245C16.6724 15.303 16.5022 15.566 16.2779 15.8136C15.8988 16.2314 15.481 16.5331 15.0091 16.7265C14.5449 16.9199 14.042 17.0205 13.5004 17.0205C12.7113 17.0205 11.868 16.8348 10.9783 16.4557C10.0886 16.0766 9.19887 15.566 8.31689 14.9239C7.42718 14.274 6.58389 13.5545 5.77929 12.7576C4.98242 11.953 4.26291 11.1097 3.62077 10.2278C2.98637 9.3458 2.47576 8.46383 2.1044 7.58959C1.73304 6.70762 1.54736 5.86433 1.54736 5.05972C1.54736 4.53363 1.6402 4.03075 1.82588 3.56656C2.01156 3.09462 2.30555 2.66137 2.71559 2.27454C3.21073 1.78714 3.7523 1.5473 4.3248 1.5473C4.54143 1.5473 4.75805 1.59372 4.95147 1.68656C5.15262 1.7794 5.33056 1.91866 5.46982 2.11981L7.26471 4.64968C7.40397 4.8431 7.50455 5.02104 7.57418 5.19124C7.64381 5.35371 7.68249 5.51618 7.68249 5.66318C7.68249 5.84885 7.62833 6.03453 7.52002 6.21247C7.41945 6.39042 7.27245 6.5761 7.08677 6.76177L6.49879 7.37297C6.41369 7.45807 6.375 7.55864 6.375 7.68243C6.375 7.74432 6.38274 7.79848 6.39821 7.86037C6.42142 7.92226 6.44463 7.96868 6.46011 8.0151C6.59937 8.27041 6.8392 8.60309 7.17961 9.00539C7.52776 9.40769 7.89912 9.81773 8.30142 10.2278C8.7192 10.6378 9.1215 11.0169 9.53154 11.3651C9.93384 11.7055 10.2665 11.9376 10.5296 12.0768C10.5682 12.0923 10.6147 12.1155 10.6688 12.1387C10.7307 12.1619 10.7926 12.1697 10.8622 12.1697C10.9938 12.1697 11.0943 12.1232 11.1794 12.0381L11.7674 11.4579C11.9608 11.2645 12.1465 11.1175 12.3245 11.0246C12.5024 10.9163 12.6803 10.8622 12.8738 10.8622C13.0207 10.8622 13.1755 10.8931 13.3457 10.9628C13.5159 11.0324 13.6938 11.133 13.8872 11.2645L16.4481 13.0826C16.6492 13.2218 16.7885 13.3843 16.8736 13.5777C16.9509 13.7711 16.9974 13.9646 16.9974 14.1812Z" stroke="#3E52BC" stroke-width="1.16049" stroke-miterlimit="10"/>
<path d="M14.3128 6.96288C14.3128 6.49868 13.9492 5.78691 13.4076 5.20667C12.9125 4.67284 12.2549 4.25507 11.605 4.25507" stroke="#3E52BC" stroke-width="1.16049" stroke-linecap="round" stroke-linejoin="round"/>
<path d="M17.0206 6.96286C17.0206 3.9688 14.599 1.54724 11.605 1.54724" stroke="#3E52BC" stroke-width="1.16049" stroke-linecap="round" stroke-linejoin="round"/>
</svg>
