<svg width="15" height="14" viewBox="0 0 15 14" fill="none" xmlns="http://www.w3.org/2000/svg">
<path d="M13.3178 10.6597C13.3178 10.8635 13.2725 11.073 13.1763 11.2767C13.0801 11.4805 12.9555 11.673 12.7914 11.8542C12.514 12.1599 12.2083 12.3806 11.863 12.5222C11.5233 12.6637 11.1553 12.7373 10.7591 12.7373C10.1817 12.7373 9.56462 12.6014 8.91361 12.324C8.26261 12.0466 7.6116 11.673 6.96625 11.2032C6.31525 10.7276 5.6982 10.2012 5.10947 9.61809C4.52639 9.02936 3.99993 8.41232 3.53007 7.76697C3.06587 7.12162 2.69225 6.47628 2.42053 5.83659C2.1488 5.19125 2.01294 4.5742 2.01294 3.98547C2.01294 3.60052 2.08087 3.23256 2.21673 2.89291C2.3526 2.54759 2.56771 2.23058 2.86774 1.94753C3.23004 1.59089 3.6263 1.41541 4.04521 1.41541C4.20372 1.41541 4.36223 1.44937 4.50375 1.5173C4.65093 1.58523 4.78113 1.68713 4.88303 1.83431L6.19637 3.68544C6.29826 3.82696 6.37186 3.95716 6.4228 4.0817C6.47375 4.20058 6.50206 4.31946 6.50206 4.42702C6.50206 4.56288 6.46243 4.69874 6.38318 4.82895C6.30959 4.95915 6.20203 5.09501 6.06617 5.23087L5.63593 5.67809C5.57366 5.74036 5.54536 5.81395 5.54536 5.90452C5.54536 5.94981 5.55102 5.98944 5.56234 6.03472C5.57933 6.08001 5.59631 6.11398 5.60763 6.14794C5.70953 6.33475 5.88502 6.57817 6.1341 6.87254C6.38884 7.16691 6.66056 7.46694 6.95493 7.76697C7.26062 8.067 7.55499 8.34438 7.85502 8.59913C8.14939 8.84821 8.39281 9.01803 8.58528 9.11993C8.61358 9.13125 8.64755 9.14824 8.68718 9.16522C8.73246 9.1822 8.77775 9.18786 8.8287 9.18786C8.92494 9.18786 8.99853 9.1539 9.0608 9.09163L9.49103 8.66706C9.63255 8.52553 9.76841 8.41798 9.89862 8.35004C10.0288 8.27079 10.159 8.23117 10.3005 8.23117C10.4081 8.23117 10.5213 8.25381 10.6459 8.30476C10.7704 8.35571 10.9006 8.4293 11.0421 8.52553L12.9159 9.85585C13.0631 9.95775 13.165 10.0766 13.2272 10.2182C13.2839 10.3597 13.3178 10.5012 13.3178 10.6597Z" stroke="white" stroke-width="0.84914" stroke-miterlimit="10"/>
<path d="M11.3536 5.37805C11.3536 5.0384 11.0876 4.51759 10.6913 4.09302C10.329 3.70242 9.84783 3.39673 9.37231 3.39673" stroke="white" stroke-width="0.84914" stroke-linecap="round" stroke-linejoin="round"/>
<path d="M13.335 5.37806C13.335 3.18728 11.5631 1.41541 9.37231 1.41541" stroke="white" stroke-width="0.84914" stroke-linecap="round" stroke-linejoin="round"/>
</svg>
