<svg width="21" height="20" viewBox="0 0 21 20" fill="none" xmlns="http://www.w3.org/2000/svg">
<ellipse cx="10.5002" cy="11.0074" rx="2.41071" ry="2.36096" stroke="black" stroke-width="1.20536"/>
<path d="M8.71448 17.3044H12.2859C14.7939 17.3044 16.0479 17.3044 16.9487 16.7257C17.3386 16.4751 17.6734 16.1532 17.934 15.7782C18.5359 14.912 18.5359 13.7063 18.5359 11.2947C18.5359 8.88316 18.5359 7.67739 17.934 6.81122C17.6734 6.43625 17.3386 6.1143 16.9487 5.86375C16.3698 5.49186 15.6452 5.35894 14.5357 5.31143C14.0063 5.31143 13.5505 4.92567 13.4466 4.42647C13.2909 3.67767 12.6071 3.13867 11.813 3.13867H9.18743C8.39327 3.13867 7.70951 3.67767 7.55376 4.42647C7.44993 4.92567 6.99409 5.31143 6.46465 5.31143C5.35519 5.35894 4.63055 5.49186 4.05173 5.86375C3.66176 6.1143 3.32694 6.43625 3.06637 6.81122C2.46448 7.67739 2.46448 8.88316 2.46448 11.2947C2.46448 13.7063 2.46448 14.912 3.06637 15.7782C3.32694 16.1532 3.66176 16.4751 4.05173 16.7257C4.95252 17.3044 6.20651 17.3044 8.71448 17.3044Z" stroke="black" stroke-width="1.20536"/>
<path d="M16.1251 8.64648H15.3215" stroke="black" stroke-width="1.20536" stroke-linecap="round"/>
</svg>
