<svg width="24" height="24" viewBox="0 0 24 24" fill="none" xmlns="http://www.w3.org/2000/svg">
<path d="M5.9501 10.0254C6.41885 10.0214 6.91112 10.0911 7.42346 10.2556C8.67435 10.6573 10.0395 11.5134 11.2622 12.7361C12.4431 13.917 13.2834 15.2255 13.7024 16.4425C13.8921 16.9934 13.9842 17.536 13.9844 18.0367C15.8082 16.2174 17.9383 14.0944 17.9383 14.0944C18.4042 13.6285 18.5025 12.7706 18.1513 11.6714C17.8 10.5722 17.0071 9.29562 15.8607 8.14918C14.7143 7.00274 13.4377 6.20984 12.3385 5.85858C11.2393 5.50736 10.3814 5.60562 9.91555 6.07152C9.90998 6.07746 9.90421 6.08323 9.89827 6.0888C9.89828 6.08878 9.89003 6.0868 9.88099 6.09444C9.87912 6.09637 9.87723 6.09828 9.87531 6.10016C9.87132 6.10416 9.86291 6.11272 9.85807 6.11744C9.8562 6.11935 9.85431 6.12125 9.85239 6.12312C9.85119 6.12432 9.8484 6.12792 9.84671 6.1288C9.83203 6.14312 9.82223 6.15364 9.80067 6.17484C9.73058 6.24382 9.62945 6.3468 9.49566 6.47986C9.22788 6.7458 8.83912 7.13709 8.36763 7.60789C7.73406 8.24072 6.81548 9.15977 5.95046 10.0251L5.9501 10.0254ZM3.79962 3.52827L2.03549 1.76413L3.79962 0L5.56376 1.76413L3.79962 3.52827ZM5.83517 5.56381L4.07103 3.79968L5.83517 2.03554L7.5993 3.79968L5.83517 5.56381ZM7.87071 7.59935L6.10657 5.83522L7.87071 4.07108L9.63484 5.83522L7.87071 7.59935ZM1.76413 5.56381L0 3.79968L1.76413 2.03554L3.52827 3.79968L1.76413 5.56381ZM3.79968 7.59935L2.03554 5.83522L3.79968 4.07108L5.56381 5.83522L3.79968 7.59935ZM5.83522 9.63489L4.07108 7.87076L5.83522 6.10663L7.59935 7.87076L5.83522 9.63489ZM18.1648 17.8936L16.4007 16.1295L18.1648 14.3653L19.9289 16.1295L18.1648 17.8936ZM20.2003 19.9291L18.4362 18.165L20.2003 16.4009L21.9645 18.165L20.2003 19.9291ZM22.2359 21.9647L20.4717 20.2005L22.2359 18.4364L24 20.2005L22.2359 21.9647ZM16.1293 19.9291L14.3652 18.165L16.1293 16.4009L17.8934 18.165L16.1293 19.9291ZM18.1648 21.9647L16.4007 20.2005L18.1648 18.4364L19.929 20.2005L18.1648 21.9647ZM20.2004 24.0002L18.4362 22.2361L20.2004 20.4719L21.9645 22.2361L20.2004 24.0002ZM18.7774 10.7785C19.5538 9.7946 20.0263 9.04615 20.0263 9.04615C20.349 8.52493 20.4915 7.94135 20.3716 7.27354C20.2518 6.60568 19.8538 5.8349 19.0134 4.99448C18.1673 4.1484 17.4272 3.73723 16.7804 3.6132C16.1337 3.48917 15.5552 3.62856 14.9502 3.98154C14.9484 3.98345 14.9465 3.98534 14.9446 3.98722C14.8966 4.0143 14.9323 3.99238 14.9215 3.9987C14.9107 4.00482 14.8924 4.0143 14.8697 4.02742C14.8245 4.05382 14.7577 4.09197 14.6683 4.14828C14.4895 4.26092 14.2286 4.43576 13.8971 4.67776C13.6963 4.82426 13.4635 5.00674 13.2122 5.21302C14.3141 5.67735 15.4602 6.45963 16.5041 7.50362C17.5437 8.54322 18.3137 9.68193 18.7774 10.7784L18.7774 10.7785ZM5.91449 18.0931C6.75189 18.9305 7.3571 19.1628 7.80218 19.1521C8.24085 19.1415 8.64932 18.8877 9.09133 18.45C9.10093 18.4392 9.10037 18.4408 9.10861 18.4327C9.14425 18.3978 9.17165 18.3748 9.18919 18.3637C9.23227 18.3364 9.24915 18.3299 9.26406 18.3235C9.2939 18.3106 9.31015 18.3006 9.32735 18.2948C9.36187 18.2831 9.39829 18.2733 9.44246 18.2602C9.53083 18.2341 9.65072 18.2013 9.79352 18.1623C10.0791 18.0845 10.4569 17.9908 10.8352 17.8919C11.4967 17.7188 12.0029 17.5865 12.1589 17.5466C12.4341 17.2167 12.5266 16.666 12.3086 15.9121C12.0768 15.1109 11.5173 14.1653 10.6799 13.3279C9.84246 12.4905 8.89695 11.9309 8.09574 11.6992C7.34189 11.4811 6.79113 11.5737 6.46125 11.8489C6.44045 11.9245 6.41205 12.0085 6.38068 12.1251C6.30522 12.4057 6.20467 12.783 6.10444 13.1611C5.90373 13.9172 5.70159 14.6804 5.70159 14.6804C5.67916 14.7631 5.63553 14.8385 5.57502 14.8992C5.12537 15.3488 4.86636 15.7605 4.85562 16.2056C4.8449 16.6507 5.07717 17.2559 5.91458 18.0933L5.91449 18.0931Z" fill="#3E52BC"/>
</svg>
