<svg width="39" height="36" viewBox="0 0 39 36" fill="none" xmlns="http://www.w3.org/2000/svg">
<path d="M5.95692 32.9223C5.95692 33.6094 5.70769 34.1453 5.20925 34.5298C4.7108 34.9143 4.03433 35.1066 3.17985 35.1066C2.25416 35.1066 1.5421 34.9873 1.04365 34.7488V33.8729C1.36408 34.0082 1.71299 34.115 2.09039 34.1933C2.46778 34.2717 2.84162 34.3108 3.2119 34.3108C3.81715 34.3108 4.27288 34.1969 4.57907 33.969C4.88526 33.7376 5.03835 33.4172 5.03835 33.0077C5.03835 32.7372 4.98317 32.5164 4.87279 32.3455C4.76598 32.1711 4.58441 32.0109 4.32806 31.8649C4.07528 31.7189 3.68898 31.5533 3.16917 31.3682C2.44286 31.1083 1.92305 30.8003 1.60974 30.4443C1.29999 30.0883 1.14512 29.6236 1.14512 29.0504C1.14512 28.4487 1.3712 27.9699 1.82336 27.6138C2.27553 27.2578 2.87366 27.0798 3.61777 27.0798C4.39393 27.0798 5.10778 27.2222 5.75932 27.507L5.47627 28.2974C4.83185 28.0268 4.20523 27.8915 3.59641 27.8915C3.11577 27.8915 2.74015 27.9948 2.46956 28.2013C2.19898 28.4078 2.06369 28.6944 2.06369 29.0611C2.06369 29.3317 2.11353 29.5542 2.21322 29.7287C2.31291 29.8996 2.48025 30.058 2.71523 30.204C2.95377 30.3464 3.31693 30.5048 3.80469 30.6793C4.62357 30.9712 5.1861 31.2845 5.49229 31.6192C5.80204 31.9539 5.95692 32.3882 5.95692 32.9223ZM12.4723 32.0678C12.4723 33.022 12.232 33.7679 11.7514 34.3055C11.2707 34.8395 10.6067 35.1066 9.75936 35.1066C9.23599 35.1066 8.77137 34.9837 8.36549 34.7381C7.95961 34.4924 7.6463 34.1399 7.42556 33.6806C7.20482 33.2214 7.09445 32.6838 7.09445 32.0678C7.09445 31.1136 7.33299 30.3713 7.81008 29.8408C8.28716 29.3068 8.94938 29.0397 9.79675 29.0397C10.6156 29.0397 11.2654 29.3121 11.746 29.8568C12.2302 30.4016 12.4723 31.1386 12.4723 32.0678ZM8.01301 32.0678C8.01301 32.8155 8.16255 33.3851 8.46162 33.7768C8.76069 34.1684 9.20039 34.3642 9.78072 34.3642C10.3611 34.3642 10.8008 34.1702 11.0998 33.7821C11.4025 33.3905 11.5538 32.819 11.5538 32.0678C11.5538 31.3237 11.4025 30.7594 11.0998 30.3749C10.8008 29.9868 10.3575 29.7928 9.77004 29.7928C9.18971 29.7928 8.75179 29.9832 8.45628 30.3642C8.16077 30.7451 8.01301 31.313 8.01301 32.0678ZM8.2747 27.5604C8.2747 27.3753 8.32098 27.2418 8.41355 27.1599C8.50968 27.078 8.62361 27.0371 8.75535 27.0371C8.89064 27.0371 9.00635 27.078 9.10248 27.1599C9.20217 27.2418 9.25201 27.3753 9.25201 27.5604C9.25201 27.7384 9.20217 27.872 9.10248 27.961C9.00635 28.0464 8.89064 28.0891 8.75535 28.0891C8.62361 28.0891 8.50968 28.0464 8.41355 27.961C8.32098 27.872 8.2747 27.7384 8.2747 27.5604ZM10.3094 27.5604C10.3094 27.3753 10.3557 27.2418 10.4483 27.1599C10.5444 27.078 10.6583 27.0371 10.7901 27.0371C10.9218 27.0371 11.0357 27.078 11.1319 27.1599C11.2316 27.2418 11.2814 27.3753 11.2814 27.5604C11.2814 27.7384 11.2316 27.872 11.1319 27.961C11.0357 28.0464 10.9218 28.0891 10.7901 28.0891C10.6583 28.0891 10.5444 28.0464 10.4483 27.961C10.3557 27.872 10.3094 27.7384 10.3094 27.5604ZM18.0372 34.9998V31.2133C18.0372 30.7362 17.9286 30.3802 17.7114 30.1452C17.4942 29.9102 17.1542 29.7928 16.6913 29.7928C16.0754 29.7928 15.625 29.9601 15.3402 30.2948C15.0589 30.6294 14.9183 31.1777 14.9183 31.9396V34.9998H14.0318V26.6899H14.9183V29.2053C14.9183 29.5079 14.9041 29.7589 14.8756 29.9583H14.929C15.1034 29.677 15.3509 29.4563 15.6713 29.2961C15.9953 29.1323 16.3638 29.0504 16.7768 29.0504C17.4924 29.0504 18.0283 29.2213 18.3843 29.5631C18.7439 29.9013 18.9237 30.4407 18.9237 31.1813V34.9998H18.0372ZM23.4738 29.0504C24.2428 29.0504 24.8392 29.3139 25.2629 29.8408C25.6901 30.3642 25.9037 31.1065 25.9037 32.0678C25.9037 33.0291 25.6883 33.7768 25.2575 34.3108C24.8303 34.8413 24.2357 35.1066 23.4738 35.1066C23.0928 35.1066 22.7439 35.0371 22.4271 34.8983C22.1137 34.7559 21.8503 34.5387 21.6367 34.2467H21.5726L21.3857 34.9998H20.7501V26.6899H21.6367V28.7086C21.6367 29.1608 21.6224 29.5667 21.5939 29.9263H21.6367C22.0497 29.3424 22.662 29.0504 23.4738 29.0504ZM23.3456 29.7928C22.7404 29.7928 22.3042 29.9672 22.0372 30.3161C21.7702 30.6615 21.6367 31.2454 21.6367 32.0678C21.6367 32.8903 21.7737 33.4795 22.0479 33.8355C22.322 34.188 22.7617 34.3642 23.367 34.3642C23.9117 34.3642 24.3176 34.1666 24.5846 33.7714C24.8516 33.3727 24.9852 32.8012 24.9852 32.0571C24.9852 31.2952 24.8516 30.7273 24.5846 30.3535C24.3176 29.9797 23.9046 29.7928 23.3456 29.7928ZM29.9305 35.1066C29.0653 35.1066 28.3817 34.8431 27.8797 34.3162C27.3813 33.7892 27.132 33.0576 27.132 32.1212C27.132 31.1777 27.3635 30.4283 27.8263 29.8729C28.2927 29.3175 28.9176 29.0397 29.7008 29.0397C30.4343 29.0397 31.0146 29.2818 31.4418 29.7661C31.8691 30.2467 32.0827 30.8822 32.0827 31.6726V32.2334H28.0506C28.0684 32.9205 28.2411 33.4421 28.5686 33.7981C28.8998 34.1542 29.3644 34.3322 29.9625 34.3322C30.5927 34.3322 31.2158 34.2005 31.8317 33.937V34.7274C31.5184 34.8627 31.2211 34.9588 30.9398 35.0158C30.6621 35.0763 30.3257 35.1066 29.9305 35.1066ZM29.6901 29.7821C29.2202 29.7821 28.8446 29.9352 28.5633 30.2414C28.2856 30.5476 28.1218 30.9712 28.072 31.5124H31.1321C31.1321 30.9534 31.0075 30.5262 30.7582 30.2307C30.509 29.9316 30.153 29.7821 29.6901 29.7821ZM35.4899 34.3749C35.6466 34.3749 35.7979 34.3642 35.9439 34.3429C36.0899 34.318 36.2056 34.293 36.291 34.2681V34.9464C36.1949 34.9926 36.0525 35.03 35.8638 35.0585C35.6786 35.0905 35.5113 35.1066 35.3618 35.1066C34.2296 35.1066 33.6635 34.5102 33.6635 33.3175V29.8355H32.825V29.4082L33.6635 29.0397L34.0373 27.7901H34.55V29.1466H36.2483V29.8355H34.55V33.2801C34.55 33.6326 34.6337 33.9032 34.801 34.0919C34.9684 34.2806 35.198 34.3749 35.4899 34.3749Z" fill="#959595"/>
<path d="M18.3469 21.5105L18.9923 21.8925L18.3469 21.5105ZM18.6063 21.0722L17.9609 20.6901L18.6063 21.0722ZM16.3487 21.0722L16.9942 20.6901L16.9942 20.6901L16.3487 21.0722ZM16.6082 21.5105L15.9628 21.8925L16.6082 21.5105ZM9.78202 17.131L10.4749 16.844H10.4749L9.78202 17.131ZM13.7668 19.5852L13.7908 18.8356L13.7668 19.5852ZM11.9468 19.2958L11.6598 19.9887H11.6598L11.9468 19.2958ZM25.1731 17.131L25.866 17.418L25.866 17.418L25.1731 17.131ZM21.1882 19.5852L21.1642 18.8356L21.1882 19.5852ZM23.0083 19.2958L23.2953 19.9887L23.0083 19.2958ZM23.5675 6.58969L23.9594 5.95021V5.95021L23.5675 6.58969ZM24.8881 7.91026L25.5276 7.51838V7.51838L24.8881 7.91026ZM11.3875 6.58969L10.9957 5.95021V5.95021L11.3875 6.58969ZM10.067 7.91026L9.4275 7.51838H9.4275L10.067 7.91026ZM15.3939 19.8226L15.0121 20.4681H15.0121L15.3939 19.8226ZM18.9923 21.8925L19.2517 21.4542L17.9609 20.6901L17.7014 21.1284L18.9923 21.8925ZM15.7033 21.4542L15.9628 21.8925L17.2536 21.1284L16.9942 20.6901L15.7033 21.4542ZM17.7014 21.1284C17.656 21.2052 17.5768 21.2502 17.4775 21.2502C17.3783 21.2502 17.299 21.2052 17.2536 21.1284L15.9628 21.8925C16.6397 23.0362 18.3153 23.0362 18.9923 21.8925L17.7014 21.1284ZM16.2775 6.75024H18.6775V5.25024H16.2775V6.75024ZM24.7275 12.8003V13.6003H26.2275V12.8003H24.7275ZM10.2275 13.6003V12.8003H8.72754V13.6003H10.2275ZM8.72754 13.6003C8.72754 14.5219 8.72713 15.2507 8.76734 15.84C8.808 16.436 8.89271 16.9439 9.08911 17.418L10.4749 16.844C10.3669 16.5831 10.2993 16.2575 10.2639 15.7379C10.2279 15.2115 10.2275 14.5424 10.2275 13.6003H8.72754ZM13.7908 18.8356C12.9986 18.8103 12.568 18.7413 12.2338 18.6029L11.6598 19.9887C12.2567 20.236 12.915 20.3084 13.7429 20.3349L13.7908 18.8356ZM9.08911 17.418C9.57121 18.5819 10.4959 19.5066 11.6598 19.9887L12.2338 18.6029C11.4375 18.2731 10.8048 17.6404 10.4749 16.844L9.08911 17.418ZM24.7275 13.6003C24.7275 14.5424 24.7271 15.2115 24.6912 15.7379C24.6558 16.2575 24.5882 16.5831 24.4801 16.844L25.866 17.418C26.0624 16.9439 26.1471 16.436 26.1877 15.84C26.2279 15.2507 26.2275 14.5219 26.2275 13.6003H24.7275ZM21.2122 20.3349C22.0401 20.3084 22.6984 20.236 23.2953 19.9887L22.7213 18.6029C22.3871 18.7413 21.9565 18.8103 21.1642 18.8356L21.2122 20.3349ZM24.4801 16.844C24.1503 17.6404 23.5176 18.2731 22.7213 18.6029L23.2953 19.9887C24.4592 19.5066 25.3839 18.5819 25.866 17.418L24.4801 16.844ZM18.6775 6.75024C20.0014 6.75024 20.9417 6.75104 21.6729 6.82056C22.3929 6.88902 22.8324 7.0188 23.1757 7.22917L23.9594 5.95021C23.3408 5.57113 22.6447 5.40619 21.8149 5.32729C20.9962 5.24945 19.9724 5.25024 18.6775 5.25024V6.75024ZM26.2275 12.8003C26.2275 11.5054 26.2283 10.4816 26.1505 9.66295C26.0716 8.83312 25.9067 8.13697 25.5276 7.51838L24.2486 8.30213C24.459 8.64542 24.5888 9.0849 24.6572 9.80493C24.7267 10.5361 24.7275 11.4764 24.7275 12.8003H26.2275ZM23.1757 7.22917C23.613 7.49715 23.9806 7.86482 24.2486 8.30213L25.5276 7.51838C25.1359 6.87924 24.5985 6.34187 23.9594 5.95021L23.1757 7.22917ZM16.2775 5.25024C14.9827 5.25024 13.9589 5.24945 13.1402 5.32729C12.3104 5.40619 11.6143 5.57113 10.9957 5.95021L11.7794 7.22917C12.1227 7.0188 12.5622 6.88902 13.2822 6.82056C14.0134 6.75104 14.9536 6.75024 16.2775 6.75024V5.25024ZM10.2275 12.8003C10.2275 11.4764 10.2283 10.5361 10.2979 9.80493C10.3663 9.0849 10.4961 8.64542 10.7065 8.30213L9.4275 7.51838C9.04843 8.13697 8.88349 8.83312 8.80459 9.66295C8.72675 10.4816 8.72754 11.5054 8.72754 12.8003H10.2275ZM10.9957 5.95021C10.3565 6.34187 9.81916 6.87924 9.4275 7.51838L10.7065 8.30213C10.9744 7.86482 11.3421 7.49715 11.7794 7.22917L10.9957 5.95021ZM16.9942 20.6901C16.7934 20.3509 16.6172 20.0518 16.4464 19.8167C16.2667 19.5692 16.0608 19.3457 15.7758 19.1771L15.0121 20.4681C15.0582 20.4954 15.1218 20.5454 15.2328 20.6982C15.3527 20.8632 15.4884 21.091 15.7033 21.4542L16.9942 20.6901ZM13.7429 20.3349C14.1883 20.3491 14.4731 20.3589 14.6894 20.3853C14.8939 20.4102 14.9706 20.4436 15.0121 20.4681L15.7758 19.1771C15.4861 19.0057 15.1812 18.9342 14.871 18.8963C14.5725 18.8599 14.2093 18.849 13.7908 18.8356L13.7429 20.3349ZM19.2517 21.4542C19.4667 21.091 19.6024 20.8632 19.7223 20.6982C19.8332 20.5454 19.8969 20.4954 19.943 20.4681L19.1793 19.1771C18.8942 19.3457 18.6883 19.5692 18.5086 19.8167C18.3378 20.0518 18.1617 20.3509 17.9609 20.6901L19.2517 21.4542ZM21.1642 18.8356C20.7457 18.849 20.3825 18.8599 20.0841 18.8963C19.7738 18.9342 19.469 19.0057 19.1793 19.1771L19.943 20.4681C19.9845 20.4436 20.0612 20.4102 20.2657 20.3853C20.482 20.3589 20.7667 20.3491 21.2122 20.3349L21.1642 18.8356Z" fill="#959595"/>
<path d="M29.192 12.4354L29.8849 12.7224V12.7224L29.192 12.4354ZM27.1625 14.4648L27.4496 15.1578H27.4496L27.1625 14.4648ZM27.6869 2.55285L27.295 3.19233V3.19233L27.6869 2.55285ZM28.9249 3.79088L29.5644 3.39901V3.39901L28.9249 3.79088ZM16.2681 2.55285L15.8762 1.91337V1.91337L16.2681 2.55285ZM15.0301 3.79088L14.3906 3.39901H14.3906L15.0301 3.79088ZM20.8525 2.75024H23.1025V1.25024H20.8525V2.75024ZM28.7275 8.37527V9.12527H30.2275V8.37527H28.7275ZM28.7275 9.12527C28.7275 10.0092 28.7271 10.6345 28.6935 11.1261C28.6605 11.6108 28.5977 11.9104 28.4991 12.1483L29.8849 12.7224C30.0718 12.2712 30.1518 11.7893 30.1901 11.2282C30.2279 10.6738 30.2275 9.98866 30.2275 9.12527H28.7275ZM28.4991 12.1483C28.1946 12.8834 27.6106 13.4675 26.8755 13.7719L27.4496 15.1578C28.5522 14.701 29.4282 13.825 29.8849 12.7224L28.4991 12.1483ZM23.1025 2.75024C24.3445 2.75024 25.2234 2.75104 25.9062 2.81595C26.5778 2.87981 26.9817 3.00038 27.295 3.19233L28.0787 1.91337C27.4902 1.55271 26.8295 1.39698 26.0482 1.32269C25.2779 1.24945 24.3155 1.25024 23.1025 1.25024V2.75024ZM30.2275 8.37527C30.2275 7.16225 30.2283 6.19982 30.155 5.42959C30.0807 4.6482 29.925 3.98754 29.5644 3.39901L28.2854 4.18275C28.4774 4.49599 28.5979 4.89998 28.6618 5.57157C28.7267 6.25433 28.7275 7.13321 28.7275 8.37527H30.2275ZM27.295 3.19233C27.6986 3.43969 28.038 3.77909 28.2854 4.18275L29.5644 3.39901C29.1933 2.79351 28.6842 2.28442 28.0787 1.91337L27.295 3.19233ZM20.8525 1.25024C19.6395 1.25024 18.677 1.24945 17.9068 1.32269C17.1254 1.39698 16.4648 1.55271 15.8762 1.91337L16.66 3.19233C16.9732 3.00038 17.3772 2.87981 18.0488 2.81595C18.7316 2.75104 19.6104 2.75024 20.8525 2.75024V1.25024ZM15.8762 1.91337C15.2707 2.28442 14.7617 2.79351 14.3906 3.39901L15.6696 4.18275C15.9169 3.77909 16.2563 3.43969 16.66 3.19233L15.8762 1.91337ZM15.2597 6.0392C15.3097 5.07882 15.4346 4.56619 15.6696 4.18275L14.3906 3.39901C13.9535 4.11234 13.815 4.93741 13.7618 5.96128L15.2597 6.0392ZM25.5024 15.4851C26.2691 15.4596 26.8869 15.3908 27.4496 15.1578L26.8755 13.7719C26.5735 13.897 26.1814 13.9617 25.4526 13.9859L25.5024 15.4851Z" fill="#959595"/>
<path d="M14.9775 13.0002C14.9775 13.5525 14.5298 14.0002 13.9775 14.0002C13.4253 14.0002 12.9775 13.5525 12.9775 13.0002C12.9775 12.448 13.4253 12.0002 13.9775 12.0002C14.5298 12.0002 14.9775 12.448 14.9775 13.0002Z" fill="#959595"/>
<path d="M18.4775 13.0002C18.4775 13.5525 18.0298 14.0002 17.4775 14.0002C16.9253 14.0002 16.4775 13.5525 16.4775 13.0002C16.4775 12.448 16.9253 12.0002 17.4775 12.0002C18.0298 12.0002 18.4775 12.448 18.4775 13.0002Z" fill="#959595"/>
<path d="M21.9775 13.0002C21.9775 13.5525 21.5298 14.0002 20.9775 14.0002C20.4253 14.0002 19.9775 13.5525 19.9775 13.0002C19.9775 12.448 20.4253 12.0002 20.9775 12.0002C21.5298 12.0002 21.9775 12.448 21.9775 13.0002Z" fill="#959595"/>
</svg>
