<svg width="38" height="36" viewBox="0 0 38 36" fill="none" xmlns="http://www.w3.org/2000/svg">
<path d="M5.53277 32.8798C5.53277 33.5741 5.28176 34.1188 4.77976 34.514C4.27775 34.9092 3.58526 35.1068 2.7023 35.1068C1.81933 35.1068 1.09658 34.9697 0.534051 34.6956V33.4886C0.890085 33.656 1.26748 33.7877 1.66624 33.8838C2.06856 33.98 2.44239 34.028 2.78775 34.028C3.29331 34.028 3.66537 33.9319 3.90391 33.7396C4.14602 33.5474 4.26707 33.2893 4.26707 32.9653C4.26707 32.6733 4.1567 32.4259 3.93596 32.2229C3.71522 32.02 3.25949 31.7797 2.56879 31.502C1.85672 31.2136 1.35471 30.8842 1.06276 30.514C0.770814 30.1437 0.62484 29.6987 0.62484 29.1788C0.62484 28.5273 0.856262 28.0146 1.31911 27.6408C1.78195 27.2669 2.40323 27.08 3.18294 27.08C3.93062 27.08 4.67473 27.2438 5.41528 27.5713L5.0094 28.6127C4.31513 28.3208 3.69563 28.1748 3.1509 28.1748C2.7379 28.1748 2.42459 28.2656 2.21097 28.4472C1.99735 28.6252 1.89054 28.862 1.89054 29.1575C1.89054 29.3604 1.93326 29.5349 2.01871 29.6809C2.10416 29.8233 2.24479 29.9586 2.44061 30.0867C2.63643 30.2149 2.98891 30.384 3.49803 30.5941C4.07125 30.8326 4.49137 31.0551 4.75839 31.2616C5.02542 31.4681 5.22124 31.7013 5.34585 31.9612C5.47046 32.2212 5.53277 32.5273 5.53277 32.8798ZM12.1497 32.036C12.1497 33.0009 11.9022 33.7539 11.4073 34.2951C10.9124 34.8362 10.2235 35.1068 9.34055 35.1068C8.7887 35.1068 8.30093 34.9822 7.87725 34.733C7.45357 34.4838 7.1278 34.1259 6.89994 33.6595C6.67208 33.1931 6.55815 32.652 6.55815 32.036C6.55815 31.0783 6.80381 30.3306 7.29514 29.793C7.78646 29.2554 8.47895 28.9866 9.3726 28.9866C10.2271 28.9866 10.9035 29.2625 11.402 29.8144C11.9004 30.3627 12.1497 31.1032 12.1497 32.036ZM7.85055 32.036C7.85055 33.3996 8.35434 34.0814 9.36191 34.0814C10.3588 34.0814 10.8573 33.3996 10.8573 32.036C10.8573 30.6866 10.3552 30.012 9.35123 30.012C8.8243 30.012 8.44157 30.1864 8.20302 30.5353C7.96804 30.8842 7.85055 31.3845 7.85055 32.036ZM7.67431 27.5286C7.67431 27.3079 7.73306 27.1494 7.85055 27.0533C7.9716 26.9536 8.11758 26.9038 8.28847 26.9038C8.47717 26.9038 8.6267 26.959 8.73708 27.0693C8.85101 27.1797 8.90797 27.3328 8.90797 27.5286C8.90797 27.7173 8.85101 27.8686 8.73708 27.9826C8.62314 28.0965 8.47361 28.1535 8.28847 28.1535C8.11758 28.1535 7.9716 28.1018 7.85055 27.9986C7.73306 27.8953 7.67431 27.7387 7.67431 27.5286ZM9.77313 27.5286C9.77313 27.3079 9.83188 27.1494 9.94937 27.0533C10.0704 26.9536 10.2164 26.9038 10.3873 26.9038C10.576 26.9038 10.7273 26.959 10.8412 27.0693C10.9552 27.1797 11.0121 27.3328 11.0121 27.5286C11.0121 27.7209 10.9534 27.874 10.8359 27.9879C10.7184 28.0983 10.5689 28.1535 10.3873 28.1535C10.2164 28.1535 10.0704 28.1018 9.94937 27.9986C9.83188 27.8953 9.77313 27.7387 9.77313 27.5286ZM18.7933 35H17.5329V31.3685C17.5329 30.9127 17.4403 30.5727 17.2552 30.3484C17.0736 30.1241 16.7834 30.012 16.3847 30.012C15.8578 30.012 15.4697 30.1704 15.2205 30.4873C14.9748 30.8006 14.852 31.3275 14.852 32.0681V35H13.5969V26.6902H14.852V28.7997C14.852 29.1379 14.8306 29.4993 14.7879 29.8838H14.868C15.0389 29.599 15.2756 29.3782 15.5783 29.2216C15.8845 29.0649 16.2405 28.9866 16.6464 28.9866C18.0776 28.9866 18.7933 29.7076 18.7933 31.1495V35ZM23.557 28.9866C24.294 28.9866 24.8672 29.2536 25.2766 29.7877C25.6896 30.3217 25.8961 31.0712 25.8961 32.036C25.8961 33.0044 25.6879 33.7592 25.2713 34.3004C24.8547 34.838 24.2762 35.1068 23.5356 35.1068C22.788 35.1068 22.2076 34.838 21.7946 34.3004H21.7092L21.4795 35H20.5396V26.6902H21.7946V28.6662C21.7946 28.8121 21.7875 29.0293 21.7733 29.3177C21.759 29.6061 21.7483 29.7894 21.7412 29.8678H21.7946C22.1934 29.2803 22.7808 28.9866 23.557 28.9866ZM23.2312 30.012C22.7257 30.012 22.3607 30.1615 22.1364 30.4606C21.9157 30.7561 21.8017 31.2527 21.7946 31.9506V32.036C21.7946 32.7552 21.9086 33.2768 22.1364 33.6008C22.3643 33.9212 22.7363 34.0814 23.2526 34.0814C23.6976 34.0814 24.0341 33.9052 24.2619 33.5527C24.4934 33.2002 24.6091 32.6911 24.6091 32.0253C24.6091 30.6831 24.1498 30.012 23.2312 30.012ZM29.9336 35.1068C29.015 35.1068 28.2958 34.8398 27.776 34.3057C27.2597 33.7681 27.0016 33.0294 27.0016 32.0894C27.0016 31.1246 27.2419 30.3662 27.7226 29.8144C28.2032 29.2625 28.8637 28.9866 29.7039 28.9866C30.4836 28.9866 31.0996 29.2233 31.5517 29.6969C32.0039 30.1704 32.23 30.8219 32.23 31.6515V32.3297H28.294C28.3118 32.903 28.4667 33.3444 28.7587 33.6542C29.0506 33.9604 29.4618 34.1135 29.9923 34.1135C30.3412 34.1135 30.6652 34.0814 30.9643 34.0173C31.2669 33.9497 31.5909 33.8393 31.9363 33.6862V34.7063C31.6301 34.8522 31.3203 34.9555 31.007 35.016C30.6937 35.0765 30.3359 35.1068 29.9336 35.1068ZM29.7039 29.9372C29.3052 29.9372 28.9847 30.0636 28.7426 30.3164C28.5041 30.5692 28.3617 30.9377 28.3154 31.4219H30.9963C30.9892 30.9341 30.8717 30.5656 30.6439 30.3164C30.416 30.0636 30.1027 29.9372 29.7039 29.9372ZM35.8562 34.0921C36.1624 34.0921 36.4686 34.044 36.7748 33.9479V34.8932C36.6359 34.9537 36.4561 35.0036 36.2354 35.0427C36.0182 35.0854 35.7921 35.1068 35.5571 35.1068C34.368 35.1068 33.7734 34.4802 33.7734 33.227V30.044H32.967V29.4886L33.8321 29.0293L34.2594 27.7796H35.0337V29.0934H36.716V30.044H35.0337V33.2056C35.0337 33.5082 35.1085 33.7325 35.258 33.8785C35.4111 34.0209 35.6105 34.0921 35.8562 34.0921Z" fill="#3E52BC"/>
<path fill-rule="evenodd" clip-rule="evenodd" d="M17.5487 21.5277L17.7988 21.1053C18.1996 20.4282 18.3999 20.0897 18.7191 19.9009C19.0383 19.712 19.4547 19.6987 20.2874 19.6721C21.0682 19.6471 21.593 19.579 22.0417 19.3931C22.9864 19.0018 23.7369 18.2513 24.1282 17.3066C24.4217 16.5981 24.4217 15.6999 24.4217 13.9035V13.1324C24.4217 10.6083 24.4217 9.34622 23.8536 8.4191C23.5357 7.90033 23.0995 7.46416 22.5807 7.14626C21.6536 6.57813 20.3916 6.57812 17.8675 6.57812H15.5542C13.0301 6.57812 11.7681 6.57813 10.841 7.14626C10.3222 7.46416 9.88604 7.90033 9.56813 8.4191C9 9.34622 9 10.6083 9 13.1324V13.9035C9 15.6999 9 16.5981 9.29348 17.3066C9.68478 18.2513 10.4353 19.0018 11.38 19.3931C11.8287 19.579 12.3535 19.6471 13.1343 19.6721C13.967 19.6987 14.3833 19.712 14.7025 19.9009C15.0217 20.0897 15.2221 20.4282 15.6229 21.1053L15.8729 21.5277C16.2455 22.1572 17.1762 22.1572 17.5487 21.5277ZM20.0843 14.289C20.6167 14.289 21.0482 13.8574 21.0482 13.3251C21.0482 12.7928 20.6167 12.3613 20.0843 12.3613C19.552 12.3613 19.1205 12.7928 19.1205 13.3251C19.1205 13.8574 19.552 14.289 20.0843 14.289ZM17.6747 13.3251C17.6747 13.8574 17.2432 14.289 16.7108 14.289C16.1785 14.289 15.747 13.8574 15.747 13.3251C15.747 12.7928 16.1785 12.3613 16.7108 12.3613C17.2432 12.3613 17.6747 12.7928 17.6747 13.3251ZM13.3373 14.289C13.8697 14.289 14.3012 13.8574 14.3012 13.3251C14.3012 12.7928 13.8697 12.3613 13.3373 12.3613C12.805 12.3613 12.3735 12.7928 12.3735 13.3251C12.3735 13.8574 12.805 14.289 13.3373 14.289Z" fill="#3E52BC"/>
<path d="M22.1696 2C23.3214 1.99999 24.2372 1.99999 24.9717 2.06982C25.7249 2.14143 26.3617 2.29154 26.9289 2.63915C27.5125 2.9968 28.0032 3.48748 28.3608 4.0711C28.7085 4.63836 28.8586 5.27514 28.9302 6.02829C29 6.76279 29 7.67871 29 8.83039V9.61699C29 10.4367 29 11.0886 28.9639 11.6173C28.927 12.1581 28.85 12.6226 28.6698 13.0575C28.2296 14.1202 27.3853 14.9646 26.3225 15.4048C26.2959 15.4158 26.2692 15.4265 26.2423 15.4367C26.114 15.4858 26.0042 15.5278 25.9077 15.5591C25.9217 15.0903 25.9217 14.5563 25.9217 13.9537V13.0614C25.9217 11.8598 25.9217 10.8532 25.8439 10.0349C25.7625 9.17817 25.5853 8.37421 25.1325 7.63536C24.6909 6.91475 24.0851 6.30889 23.3645 5.8673C22.6256 5.41453 21.8217 5.23733 20.9649 5.15588C20.1466 5.07807 19.14 5.07809 17.9384 5.07812H15.4833C14.6672 5.0781 13.9411 5.07809 13.3028 5.10245C13.3325 4.9994 13.3732 4.88128 13.4211 4.74264C13.5024 4.50682 13.6052 4.28381 13.7355 4.0711C14.0932 3.48748 14.5839 2.9968 15.1675 2.63915C15.7347 2.29154 16.3715 2.14143 17.1247 2.06982C17.8592 1.99999 18.775 1.99999 19.9268 2H22.1696Z" fill="#3E52BC"/>
</svg>
