<svg width="90" height="90" viewBox="0 0 90 90" fill="none" xmlns="http://www.w3.org/2000/svg">
<rect width="90" height="90" rx="4.04444" fill="#3E52BC"/>
<g clip-path="url(#clip0_574_20388)">
<path d="M15 69.999H75L65 54.999H25L15 69.999Z" fill="#95A5A6"/>
<path d="M70 24.999H20V67.499H70V24.999Z" fill="#F1C40F"/>
<path d="M47.5 42.4989H25V64.9989H47.5V42.4989Z" fill="#ECF0F1"/>
<path d="M65 44.999H50V67.499H65V44.999Z" fill="#ECF0F1"/>
<path d="M70 37.4989H20V47.4989H70V37.4989Z" fill="#F39C12"/>
<path d="M65 42.4989H50V44.9989H65V42.4989Z" fill="#BDC3C7"/>
<path d="M47.5 42.4989H25V47.4989H47.5V42.4989Z" fill="#BDC3C7"/>
<path d="M15 34.9993V38.7493C15 40.7493 16.6789 42.4993 18.75 42.4993C20.821 42.4993 22.5 40.7493 22.5 38.7493V34.9993H18.75H15Z" fill="#C0392B"/>
<path d="M22.5 34.999V38.749C22.5 40.749 24.179 42.499 26.25 42.499C28.321 42.499 30 40.749 30 38.749V34.999H26.25H22.5Z" fill="#BDC3C7"/>
<path d="M30 34.999V38.749C30 40.749 31.679 42.499 33.75 42.499C35.821 42.499 37.5 40.749 37.5 38.749V34.999H33.75H30Z" fill="#C0392B"/>
<path d="M37.5 34.9993V38.7493C37.5 40.7493 39.179 42.4993 41.25 42.4993C43.32 42.4993 45 40.7493 45 38.7493V34.9993H41.25H37.5Z" fill="#BDC3C7"/>
<path d="M45 34.999V38.749C45 40.749 46.68 42.499 48.75 42.499C50.82 42.499 52.5 40.749 52.5 38.749V34.999H48.75H45Z" fill="#C0392B"/>
<path d="M52.5 34.999V38.749C52.5 40.749 54.18 42.499 56.25 42.499C58.32 42.499 60 40.749 60 38.749V34.999H56.25H52.5Z" fill="#BDC3C7"/>
<path d="M60 34.9993V38.7493C60 40.7493 61.68 42.4993 63.75 42.4993C65.82 42.4993 67.5 40.7493 67.5 38.7493V34.9993H63.75H60Z" fill="#C0392B"/>
<path d="M67.5 34.999V38.749C67.5 40.749 69.18 42.499 71.25 42.499C73.32 42.499 75 40.749 75 38.749V34.999H71.25H67.5Z" fill="#BDC3C7"/>
<path d="M40 24.999H45V34.999H37.5L40 24.999Z" fill="#ECF0F1"/>
<path d="M45 24.999H50L52.5 34.999H45V24.999Z" fill="#E74C3C"/>
<path d="M27.5 24.999H35L30 34.999H22.5L27.5 24.999Z" fill="#ECF0F1"/>
<path d="M35 24.999H40L37.5 34.999H30L35 24.999Z" fill="#E74C3C"/>
<path d="M55 24.999H50L52.5 34.999H60L55 24.999Z" fill="#ECF0F1"/>
<path d="M62.5 24.999H55L60 34.999H67.5L62.5 24.999Z" fill="#E74C3C"/>
<path d="M20 24.999H27.5L22.5 34.999H15L20 24.999Z" fill="#E74C3C"/>
<path d="M70 24.999H62.5L67.5 34.999H75L70 24.999Z" fill="#ECF0F1"/>
<path d="M62.5 47.499H52.5V67.499H62.5V47.499Z" fill="#3498DB"/>
<path d="M62.5 54.999H50V57.499H62.5V54.999Z" fill="#ECF0F1"/>
<path d="M65 44.999H62.5V47.499H65V44.999Z" fill="#BDC3C7"/>
<path d="M62.5 44.999H52.5V47.499H62.5V44.999Z" fill="#2980B9"/>
<path d="M52.5 44.999H50V47.499H52.5V44.999Z" fill="#BDC3C7"/>
<path d="M45 44.999H27.5V62.499H45V44.999Z" fill="#3498DB"/>
<path d="M47.5 52.499H25V54.999H47.5V52.499Z" fill="#ECF0F1"/>
<path d="M37.5 45H35V62.5H37.5V45Z" fill="#ECF0F1"/>
<path d="M17.5 24.999H72.5L63.3325 19.999H26.6675L17.5 24.999Z" fill="#ECF0F1"/>
<path d="M37.5 44.999H35V47.499H37.5V44.999Z" fill="#BDC3C7"/>
<path d="M17.5 22.499H72.5L63.3325 17.499H26.6675L17.5 22.499Z" fill="#BDC3C7"/>
<path d="M72.5 22.499H17.5V24.999H72.5V22.499Z" fill="#7F8C8D"/>
<path d="M62.5 59.999H52.5V67.499H62.5V59.999Z" fill="#2980B9"/>
<path d="M75 69.999H15V72.499H75V69.999Z" fill="#7F8C8D"/>
<path d="M27.5 44.999V47.499H35V44.999H27.5ZM37.5 44.999V47.499H45V44.999H37.5Z" fill="#2980B9"/>
<path d="M27.5 59.999V62.499H35V59.999H27.5ZM37.5 59.999V62.499H45V59.999H37.5Z" fill="#2980B9"/>
<path d="M20 24.999L18.75 27.499H26.25L27.5 24.999H20ZM32.5 24.999L31.875 27.499H39.375L40 24.999H32.5ZM45 24.999V27.499H50.625L50 24.999H45ZM55 24.999L56.25 27.499H63.75L62.5 24.999H55Z" fill="#C0392B"/>
<path d="M27.5 24.999L26.25 27.499H33.7533L35 24.999H27.5ZM40 24.999L39.375 27.499H45V24.999H40ZM50 24.999L50.625 27.499H56.25L55 24.999H50ZM62.5 24.999L63.75 27.499H71.25L70 24.999H62.5Z" fill="#BDC3C7"/>
</g>
<defs>
<clipPath id="clip0_574_20388">
<rect width="60" height="60" fill="white" transform="translate(15 14.999)"/>
</clipPath>
</defs>
</svg>
