<svg width="24" height="24" viewBox="0 0 24 24" fill="none" xmlns="http://www.w3.org/2000/svg">
<path d="M17.5385 0.00300287C16.2807 -0.0401078 15.0469 0.382046 14.0402 1.19995C13.0335 2.01786 12.314 3.18275 12 4.50281C11.686 3.18275 10.9665 2.01786 9.95977 1.19995C8.95308 0.382046 7.71928 -0.0401078 6.46154 0.00300287C3.264 -0.106993 2.28 3.59285 3.35631 5.99875H0.923077C0.678262 5.99875 0.443473 6.1041 0.270363 6.29163C0.0972524 6.47916 0 6.73351 0 6.99871V8.99863C0 9.26383 0.0972524 9.51818 0.270363 9.7057C0.443473 9.89323 0.678262 9.99859 0.923077 9.99859H23.0769C23.3217 9.99859 23.5565 9.89323 23.7296 9.7057C23.9027 9.51818 24 9.26383 24 8.99863V6.99871C24 6.73351 23.9027 6.47916 23.7296 6.29163C23.5565 6.1041 23.3217 5.99875 23.0769 5.99875H20.6658C21.7846 3.62885 20.8468 0.0010031 17.6123 0.0010031H17.5385V0.00300287ZM17.8763 5.99875H13.8462C13.8471 4.93862 14.2366 3.92228 14.9289 3.17303C15.6212 2.42378 16.5598 2.00292 17.5385 2.00292C19.7077 2.00292 20.0917 5.74676 17.8763 5.99875ZM10.1538 5.99875H6.07754C4.16677 5.76476 4.05415 2.21091 6.15138 2.00292C6.25455 1.99268 6.35837 1.99268 6.46154 2.00292C7.44016 2.00292 8.37875 2.42378 9.07109 3.17303C9.76343 3.92228 10.1529 4.93862 10.1538 5.99875ZM1.84615 12.0005V21.0001C1.84615 21.7957 2.13791 22.5588 2.65724 23.1214C3.17657 23.6839 3.88094 24 4.61538 24H10.1538V12.0005H1.84615ZM13.8462 12.0005V24H19.3846C20.1191 24 20.8234 23.6839 21.3428 23.1214C21.8621 22.5588 22.1538 21.7957 22.1538 21.0001V12.0005H13.8462Z" fill="#3E52BC"/>
</svg>
