<svg width="31" height="36" viewBox="0 0 31 36" fill="none" xmlns="http://www.w3.org/2000/svg">
<path d="M6.45846 32.8273H2.03651V25.0195H6.45846V26.0983H3.31824V28.2185H6.26086V29.2919H3.31824V31.7432H6.45846V32.8273ZM11.9912 31.1397C11.9912 31.5278 11.8969 31.8554 11.7082 32.1224C11.5195 32.3894 11.2436 32.5923 10.8804 32.7312C10.5208 32.8665 10.0793 32.9341 9.55595 32.9341C9.14295 32.9341 8.78692 32.9039 8.48785 32.8434C8.19234 32.7864 7.91286 32.6974 7.64939 32.5763V31.4922C7.93066 31.6239 8.24575 31.7379 8.59466 31.834C8.94713 31.9301 9.28003 31.9782 9.59334 31.9782C10.0063 31.9782 10.3036 31.9141 10.4852 31.7859C10.6668 31.6542 10.7576 31.4797 10.7576 31.2626C10.7576 31.1344 10.7202 31.0205 10.6454 30.9208C10.5742 30.8175 10.4389 30.7125 10.2395 30.6057C10.0437 30.4953 9.75533 30.3636 9.37438 30.2105C9.00054 30.0609 8.68545 29.9114 8.4291 29.7619C8.17276 29.6123 7.97872 29.4325 7.84699 29.2225C7.71526 29.0089 7.64939 28.7365 7.64939 28.4054C7.64939 27.882 7.85589 27.485 8.26889 27.2145C8.68545 26.9403 9.23552 26.8032 9.91911 26.8032C10.2823 26.8032 10.6241 26.8406 10.9445 26.9154C11.2685 26.9866 11.5853 27.0916 11.8951 27.2305L11.4999 28.1757C11.2329 28.0583 10.9641 27.9621 10.6935 27.8874C10.4265 27.809 10.1541 27.7699 9.87638 27.7699C9.55239 27.7699 9.30495 27.8197 9.13405 27.9194C8.96672 28.0191 8.88305 28.1615 8.88305 28.3466C8.88305 28.4855 8.92399 28.603 9.00588 28.6991C9.08777 28.7952 9.2284 28.8914 9.42778 28.9875C9.63072 29.0836 9.91199 29.2029 10.2716 29.3453C10.6241 29.4806 10.9285 29.623 11.1848 29.7726C11.4447 29.9185 11.6441 30.0983 11.7829 30.312C11.9218 30.5256 11.9912 30.8015 11.9912 31.1397ZM15.6655 26.8032C16.4132 26.8032 16.9775 26.9688 17.3584 27.2999C17.743 27.631 17.9352 28.1473 17.9352 28.8487V32.8273H17.0433L16.803 31.9889H16.7603C16.593 32.2025 16.4203 32.3787 16.2423 32.5176C16.0643 32.6564 15.8578 32.7597 15.6228 32.8273C15.3914 32.8985 15.1083 32.9341 14.7736 32.9341C14.4212 32.9341 14.1061 32.8701 13.8284 32.7419C13.5507 32.6102 13.3317 32.4108 13.1715 32.1437C13.0113 31.8767 12.9312 31.5385 12.9312 31.129C12.9312 30.5202 13.1572 30.0627 13.6094 29.7565C14.0651 29.4503 14.7523 29.2812 15.6708 29.2492L16.6962 29.2118V28.9021C16.6962 28.4926 16.6001 28.2007 16.4078 28.0262C16.2191 27.8518 15.9521 27.7645 15.6068 27.7645C15.3112 27.7645 15.0246 27.8073 14.7469 27.8927C14.4692 27.9781 14.1986 28.0832 13.9352 28.2078L13.5293 27.3213C13.8177 27.1682 14.1452 27.0436 14.5119 26.9474C14.8822 26.8513 15.2667 26.8032 15.6655 26.8032ZM16.6909 30.0022L15.9272 30.0289C15.3006 30.0503 14.8609 30.1571 14.6081 30.3493C14.3553 30.5416 14.2289 30.8051 14.2289 31.1397C14.2289 31.4317 14.3161 31.6453 14.4906 31.7806C14.665 31.9123 14.8947 31.9782 15.1795 31.9782C15.6139 31.9782 15.9735 31.8554 16.2583 31.6097C16.5467 31.3605 16.6909 30.9955 16.6909 30.5149V30.0022ZM23.6656 31.1397C23.6656 31.5278 23.5712 31.8554 23.3825 32.1224C23.1938 32.3894 22.9179 32.5923 22.5548 32.7312C22.1952 32.8665 21.7537 32.9341 21.2303 32.9341C20.8173 32.9341 20.4613 32.9039 20.1622 32.8434C19.8667 32.7864 19.5872 32.6974 19.3237 32.5763V31.4922C19.605 31.6239 19.9201 31.7379 20.269 31.834C20.6215 31.9301 20.9544 31.9782 21.2677 31.9782C21.6807 31.9782 21.978 31.9141 22.1596 31.7859C22.3411 31.6542 22.4319 31.4797 22.4319 31.2626C22.4319 31.1344 22.3945 31.0205 22.3198 30.9208C22.2486 30.8175 22.1133 30.7125 21.9139 30.6057C21.7181 30.4953 21.4297 30.3636 21.0487 30.2105C20.6749 30.0609 20.3598 29.9114 20.1035 29.7619C19.8471 29.6123 19.6531 29.4325 19.5213 29.2225C19.3896 29.0089 19.3237 28.7365 19.3237 28.4054C19.3237 27.882 19.5302 27.485 19.9432 27.2145C20.3598 26.9403 20.9099 26.8032 21.5935 26.8032C21.9566 26.8032 22.2984 26.8406 22.6188 26.9154C22.9428 26.9866 23.2597 27.0916 23.5695 27.2305L23.1743 28.1757C22.9072 28.0583 22.6384 27.9621 22.3678 27.8874C22.1008 27.809 21.8284 27.7699 21.5507 27.7699C21.2267 27.7699 20.9793 27.8197 20.8084 27.9194C20.6411 28.0191 20.5574 28.1615 20.5574 28.3466C20.5574 28.4855 20.5983 28.603 20.6802 28.6991C20.7621 28.7952 20.9028 28.8914 21.1021 28.9875C21.3051 29.0836 21.5863 29.2029 21.9459 29.3453C22.2984 29.4806 22.6028 29.623 22.8592 29.7726C23.1191 29.9185 23.3184 30.0983 23.4573 30.312C23.5962 30.5256 23.6656 30.8015 23.6656 31.1397ZM24.1302 26.9154H25.4974L26.7097 30.2906C26.7631 30.4437 26.8111 30.595 26.8539 30.7445C26.9002 30.8905 26.9393 31.0347 26.9714 31.1771C27.007 31.3195 27.0354 31.4619 27.0568 31.6044H27.0888C27.1245 31.4192 27.1743 31.2127 27.2384 30.9849C27.306 30.7534 27.3808 30.522 27.4627 30.2906L28.6269 26.9154H29.9781L27.4413 33.6391C27.2953 34.0236 27.1156 34.3512 26.9019 34.6217C26.6919 34.8959 26.4426 35.1024 26.1543 35.2412C25.8659 35.3837 25.5365 35.4549 25.1663 35.4549C24.9882 35.4549 24.8334 35.4442 24.7016 35.4228C24.5699 35.405 24.4578 35.3854 24.3652 35.3641V34.3601C24.44 34.3779 24.5343 34.3939 24.6482 34.4081C24.7622 34.4224 24.8797 34.4295 25.0007 34.4295C25.225 34.4295 25.4191 34.385 25.5828 34.296C25.7466 34.207 25.8855 34.0806 25.9994 33.9168C26.1133 33.7566 26.2077 33.5732 26.2824 33.3667L26.4907 32.8113L24.1302 26.9154Z" fill="#3E52BC"/>
<path fill-rule="evenodd" clip-rule="evenodd" d="M5.61857 7.82274C5.09937 8.77128 5.09937 9.91549 5.09937 12.2039V13.725C5.09937 17.6258 5.09937 19.5763 6.27094 20.7881C7.44251 22 9.32813 22 13.0994 22H17.0994C20.8706 22 22.7562 22 23.9278 20.7881C25.0994 19.5763 25.0994 17.6258 25.0994 13.725V12.2039C25.0994 9.91549 25.0994 8.77128 24.5802 7.82274C24.061 6.87421 23.1124 6.28551 21.2153 5.10812L19.2153 3.86687C17.21 2.62229 16.2073 2 15.0994 2C13.9914 2 12.9888 2.62229 10.9834 3.86687L8.9834 5.10813C7.08631 6.28551 6.13777 6.87421 5.61857 7.82274ZM12.0994 17.25C11.6852 17.25 11.3494 17.5858 11.3494 18C11.3494 18.4142 11.6852 18.75 12.0994 18.75H18.0994C18.5136 18.75 18.8494 18.4142 18.8494 18C18.8494 17.5858 18.5136 17.25 18.0994 17.25H12.0994Z" fill="#3E52BC"/>
</svg>
