<svg width="24" height="24" viewBox="0 0 24 24" fill="none" xmlns="http://www.w3.org/2000/svg">
<path d="M11.5796 0.753402C11.5817 0.751475 11.5833 0.75059 11.5842 0.750216C11.585 0.75059 11.5866 0.751476 11.5888 0.753403L22.4183 10.3691V21.6C22.4183 22.046 22.247 22.4686 21.9501 22.7762C21.6541 23.0828 21.2583 23.25 20.8515 23.25H14.6738C14.6737 23.25 14.6736 23.2499 14.6735 23.2499C14.6726 23.2495 14.6701 23.2483 14.6668 23.2448C14.6595 23.2373 14.651 23.2216 14.651 23.2V18.4C14.651 17.573 14.3341 16.7747 13.762 16.1821C13.1891 15.5886 12.4062 15.25 11.5842 15.25C10.7621 15.25 9.97925 15.5886 9.40631 16.1821C8.83424 16.7747 8.51733 17.573 8.51733 18.4V23.2C8.51733 23.2216 8.50878 23.2373 8.50154 23.2448L9.04113 23.7657L8.50153 23.2448C8.49818 23.2483 8.49569 23.2495 8.49485 23.2499C8.49472 23.2499 8.49462 23.25 8.49454 23.25H2.31683C1.90999 23.25 1.51422 23.0828 1.21818 22.7762C0.921271 22.4686 0.75 22.046 0.75 21.6V10.3691L11.5796 0.753402Z" stroke="#3E52BC" stroke-width="1.5"/>
</svg>
