<svg width="24" height="24" viewBox="0 0 24 24" fill="none" xmlns="http://www.w3.org/2000/svg">
<path d="M12.52 0.192052C12.3751 0.068109 12.1907 0 12 0C11.8093 0 11.6249 0.068109 11.48 0.192052L0 10.032V21.6C0 22.2365 0.252856 22.847 0.702944 23.2971C1.15303 23.7471 1.76348 24 2.4 24H8.8C9.01217 24 9.21566 23.9157 9.36569 23.7657C9.51571 23.6157 9.6 23.4122 9.6 23.2V18.4C9.6 17.7635 9.85286 17.153 10.3029 16.703C10.753 16.2529 11.3635 16 12 16C12.6365 16 13.247 16.2529 13.6971 16.703C14.1471 17.153 14.4 17.7635 14.4 18.4V23.2C14.4 23.4122 14.4843 23.6157 14.6343 23.7657C14.7843 23.9157 14.9878 24 15.2 24H21.6C22.2365 24 22.847 23.7471 23.2971 23.2971C23.7471 22.847 24 22.2365 24 21.6V10.032L12.52 0.192052Z" fill="#3E52BC"/>
</svg>
