<svg width="31" height="36" viewBox="0 0 31 36" fill="none" xmlns="http://www.w3.org/2000/svg">
<path d="M6.85367 32.8274H2.50115V25.0196H6.85367V25.826H3.40904V28.3414H6.64539V29.1424H3.40904V32.0156H6.85367V32.8274ZM12.2316 31.2306C12.2316 31.7753 12.0286 32.1954 11.6227 32.4909C11.2169 32.7864 10.6472 32.9342 9.91378 32.9342C9.13763 32.9342 8.53237 32.8114 8.09801 32.5657V31.7433C8.37927 31.8857 8.68012 31.9978 9.00055 32.0797C9.32454 32.1616 9.63607 32.2026 9.93514 32.2026C10.398 32.2026 10.754 32.1296 11.0032 31.9836C11.2525 31.8341 11.3771 31.608 11.3771 31.3053C11.3771 31.0775 11.2774 30.8834 11.078 30.7232C10.8822 30.5595 10.4977 30.3672 9.92446 30.1465C9.37973 29.9435 8.99165 29.7673 8.76023 29.6177C8.53237 29.4647 8.36147 29.292 8.24754 29.0997C8.13717 28.9075 8.08199 28.6778 8.08199 28.4108C8.08199 27.9337 8.27602 27.5581 8.6641 27.2839C9.05218 27.0062 9.58445 26.8674 10.2609 26.8674C10.8911 26.8674 11.507 26.9956 12.1087 27.2519L11.7936 27.9729C11.2062 27.7308 10.6739 27.6097 10.1968 27.6097C9.77671 27.6097 9.45984 27.6756 9.24622 27.8073C9.0326 27.939 8.92579 28.1206 8.92579 28.352C8.92579 28.5087 8.96495 28.6422 9.04328 28.7526C9.12517 28.863 9.25512 28.968 9.43313 29.0677C9.61115 29.1674 9.95294 29.3116 10.4585 29.5003C11.1528 29.753 11.621 30.0076 11.8631 30.2639C12.1087 30.5203 12.2316 30.8425 12.2316 31.2306ZM17.2783 32.8274L17.1021 31.9943H17.0594C16.7674 32.361 16.4755 32.6102 16.1835 32.7419C15.8952 32.8701 15.5338 32.9342 15.0994 32.9342C14.5191 32.9342 14.0634 32.7847 13.7322 32.4856C13.4047 32.1865 13.2409 31.7611 13.2409 31.2092C13.2409 30.0272 14.1862 29.4077 16.0767 29.3507L17.0701 29.3187V28.9555C17.0701 28.4962 16.9704 28.158 16.771 27.9408C16.5752 27.7201 16.2601 27.6097 15.8257 27.6097C15.338 27.6097 14.7861 27.7592 14.1702 28.0583L13.8978 27.3801C14.1862 27.2234 14.5013 27.1006 14.8431 27.0116C15.1884 26.9226 15.5338 26.8781 15.8791 26.8781C16.577 26.8781 17.0932 27.0329 17.4279 27.3427C17.7661 27.6524 17.9352 28.1491 17.9352 28.8327V32.8274H17.2783ZM15.2757 32.2026C15.8275 32.2026 16.2601 32.0512 16.5734 31.7486C16.8903 31.446 17.0487 31.0223 17.0487 30.4776V29.9489L16.1622 29.9862C15.4572 30.0112 14.9481 30.1215 14.6348 30.3174C14.325 30.5096 14.1702 30.8105 14.1702 31.2199C14.1702 31.5403 14.2663 31.7842 14.4586 31.9515C14.6544 32.1189 14.9267 32.2026 15.2757 32.2026ZM23.5428 31.2306C23.5428 31.7753 23.3398 32.1954 22.9339 32.4909C22.5281 32.7864 21.9584 32.9342 21.225 32.9342C20.4488 32.9342 19.8436 32.8114 19.4092 32.5657V31.7433C19.6905 31.8857 19.9913 31.9978 20.3118 32.0797C20.6357 32.1616 20.9473 32.2026 21.2463 32.2026C21.7092 32.2026 22.0652 32.1296 22.3144 31.9836C22.5637 31.8341 22.6883 31.608 22.6883 31.3053C22.6883 31.0775 22.5886 30.8834 22.3892 30.7232C22.1934 30.5595 21.8089 30.3672 21.2357 30.1465C20.6909 29.9435 20.3029 29.7673 20.0714 29.6177C19.8436 29.4647 19.6727 29.292 19.5587 29.0997C19.4484 28.9075 19.3932 28.6778 19.3932 28.4108C19.3932 27.9337 19.5872 27.5581 19.9753 27.2839C20.3634 27.0062 20.8957 26.8674 21.5721 26.8674C22.2023 26.8674 22.8182 26.9956 23.4199 27.2519L23.1048 27.9729C22.5174 27.7308 21.9851 27.6097 21.508 27.6097C21.0879 27.6097 20.771 27.6756 20.5574 27.8073C20.3438 27.939 20.237 28.1206 20.237 28.352C20.237 28.5087 20.2762 28.6422 20.3545 28.7526C20.4364 28.863 20.5663 28.968 20.7443 29.0677C20.9224 29.1674 21.2641 29.3116 21.7697 29.5003C22.464 29.753 22.9322 30.0076 23.1743 30.2639C23.4199 30.5203 23.5428 30.8425 23.5428 31.2306ZM24.0608 26.9742H25.0114L26.2931 30.312C26.5744 31.0739 26.7488 31.624 26.8165 31.9622H26.8592C26.9055 31.7807 27.0016 31.4709 27.1476 31.033C27.2971 30.5915 27.7813 29.2386 28.6002 26.9742H29.5508L27.0355 33.6392C26.7862 34.2978 26.4943 34.7642 26.1596 35.0384C25.8285 35.3161 25.4208 35.4549 24.9366 35.4549C24.6661 35.4549 24.399 35.4247 24.1356 35.3641V34.6538C24.3314 34.6966 24.5503 34.7179 24.7924 34.7179C25.4013 34.7179 25.8356 34.3761 26.0955 33.6926L26.4213 32.8594L24.0608 26.9742Z" fill="#959595"/>
<path d="M5.00001 12.2042C5.00001 9.91573 5.00001 8.77152 5.51921 7.82299C6.03841 6.87445 6.98696 6.28576 8.88405 5.10837L10.884 3.86711C12.8894 2.62253 13.8921 2.00024 15 2.00024C16.1079 2.00024 17.1106 2.62253 19.116 3.86711L21.116 5.10837C23.0131 6.28576 23.9616 6.87445 24.4808 7.82299C25 8.77152 25 9.91573 25 12.2042V13.7252C25 17.6261 25 19.5765 23.8284 20.7884C22.6569 22.0002 20.7712 22.0002 17 22.0002H13C9.22878 22.0002 7.34316 22.0002 6.17159 20.7884C5.00001 19.5765 5.00001 17.6261 5.00001 13.7252V12.2042Z" stroke="#959595" stroke-width="1.5"/>
<path d="M18 18.0002H12" stroke="#959595" stroke-width="1.5" stroke-linecap="round"/>
</svg>
