<svg width="40" height="40" viewBox="0 0 40 40" fill="none" xmlns="http://www.w3.org/2000/svg">
<path d="M19.9205 39.0316L8.35502 25.3919C8.19432 25.1871 8.03528 24.981 7.87792 24.7736C5.90233 22.1712 4.83507 18.9925 4.83986 15.7252C4.83986 11.7255 6.42871 7.88972 9.25688 5.06155C12.085 2.23338 15.9209 0.644531 19.9205 0.644531C23.9201 0.644531 27.756 2.23338 30.5841 5.06155C33.4123 7.88972 35.0011 11.7255 35.0011 15.7252C35.0059 18.991 33.9391 22.1682 31.9644 24.7694L31.9631 24.7736C31.9631 24.7736 31.5518 25.3137 31.4901 25.3864L19.9205 39.0316ZM10.066 23.1215C10.0687 23.1215 10.3868 23.5438 10.4595 23.6343L19.9205 34.7926L29.3939 23.6192C29.4542 23.5438 29.775 23.1188 29.7764 23.1174C31.3902 20.9912 32.2624 18.3945 32.2592 15.7252C32.2592 12.4527 30.9592 9.31435 28.6453 7.00039C26.3313 4.68643 23.1929 3.38647 19.9205 3.38647C16.6481 3.38647 13.5097 4.68643 11.1957 7.00039C8.88176 9.31435 7.58179 12.4527 7.58179 15.7252C7.57892 18.3961 8.45068 20.9944 10.066 23.1215Z" fill="#3E52BC"/>
<path d="M10.066 23.1215C10.0687 23.1215 10.3868 23.5438 10.4595 23.6343L19.9205 34.7926L29.3939 23.6192C29.4542 23.5438 29.775 23.1188 29.7764 23.1174C31.3902 20.9912 32.2624 18.3945 32.2592 15.7252C32.2592 12.4527 30.9592 9.31435 28.6453 7.00039C26.3313 4.68643 23.1929 3.38647 19.9205 3.38647C16.6481 3.38647 13.5097 4.68643 11.1957 7.00039C8.88176 9.31435 7.58179 12.4527 7.58179 15.7252C7.57892 18.3961 8.45068 20.9944 10.066 23.1215Z" fill="#3E52BC"/>
<circle cx="19.9687" cy="15.666" r="11.9355" fill="white"/>
<rect x="23.4102" y="18.5098" width="5.03275" height="1.95471" rx="0.977356" transform="rotate(38.4235 23.4102 18.5098)" fill="#3E52BC"/>
<g filter="url(#filter0_b_751_24119)">
<circle cx="18.4078" cy="14.9664" r="5.49763" fill="url(#paint0_linear_751_24119)" fill-opacity="0.2"/>
<circle cx="18.4078" cy="14.9664" r="5.49763" stroke="#3E52BC" stroke-width="0.977357"/>
</g>
<defs>
<filter id="filter0_b_751_24119" x="7.5346" y="4.09332" width="21.7462" height="21.7461" filterUnits="userSpaceOnUse" color-interpolation-filters="sRGB">
<feFlood flood-opacity="0" result="BackgroundImageFix"/>
<feGaussianBlur in="BackgroundImageFix" stdDeviation="2.44339"/>
<feComposite in2="SourceAlpha" operator="in" result="effect1_backgroundBlur_751_24119"/>
<feBlend mode="normal" in="SourceGraphic" in2="effect1_backgroundBlur_751_24119" result="shape"/>
</filter>
<linearGradient id="paint0_linear_751_24119" x1="15.7201" y1="12.7673" x2="22.6837" y2="18.7536" gradientUnits="userSpaceOnUse">
<stop stop-color="#EFEEEE"/>
<stop offset="1" stop-color="white" stop-opacity="0"/>
</linearGradient>
</defs>
</svg>
