<svg width="16" height="16" viewBox="0 0 16 16" fill="none" xmlns="http://www.w3.org/2000/svg">
<path d="M13.1928 9.95338C11.8194 11.32 9.85278 11.74 8.12611 11.2L4.98611 14.3334C4.75945 14.5667 4.31278 14.7067 3.99278 14.66L2.53945 14.46C2.05945 14.3934 1.61278 13.94 1.53945 13.46L1.33945 12.0067C1.29278 11.6867 1.44611 11.24 1.66611 11.0134L4.79945 7.88005C4.26611 6.14671 4.67945 4.18005 6.05278 2.81338C8.01945 0.846712 11.2128 0.846712 13.1861 2.81338C15.1594 4.78005 15.1594 7.98671 13.1928 9.95338Z" stroke="#292D32" stroke-miterlimit="10" stroke-linecap="round" stroke-linejoin="round"/>
<path d="M4.59277 11.6602L6.12611 13.1935" stroke="#292D32" stroke-miterlimit="10" stroke-linecap="round" stroke-linejoin="round"/>
<path d="M9.66699 7.3335C10.2193 7.3335 10.667 6.88578 10.667 6.3335C10.667 5.78121 10.2193 5.3335 9.66699 5.3335C9.11471 5.3335 8.66699 5.78121 8.66699 6.3335C8.66699 6.88578 9.11471 7.3335 9.66699 7.3335Z" stroke="#292D32" stroke-linecap="round" stroke-linejoin="round"/>
</svg>
