<svg width="16" height="16" viewBox="0 0 16 16" fill="none" xmlns="http://www.w3.org/2000/svg">
<path d="M13.1931 9.95289C11.8198 11.3196 9.85308 11.7396 8.12642 11.1996L4.98642 14.3329C4.75975 14.5662 4.31308 14.7062 3.99308 14.6596L2.53975 14.4596C2.05975 14.3929 1.61308 13.9396 1.53975 13.4596L1.33975 12.0062C1.29309 11.6862 1.44642 11.2396 1.66642 11.0129L4.79975 7.87956C4.26642 6.14622 4.67975 4.17956 6.05308 2.81289C8.01975 0.846224 11.2131 0.846224 13.1864 2.81289C15.1598 4.77956 15.1598 7.98622 13.1931 9.95289Z" stroke="black" stroke-miterlimit="10" stroke-linecap="round" stroke-linejoin="round"/>
<path d="M4.59308 11.6602L6.12641 13.1935" stroke="black" stroke-miterlimit="10" stroke-linecap="round" stroke-linejoin="round"/>
<path d="M9.66669 7.33301C10.219 7.33301 10.6667 6.88529 10.6667 6.33301C10.6667 5.78072 10.219 5.33301 9.66669 5.33301C9.1144 5.33301 8.66669 5.78072 8.66669 6.33301C8.66669 6.88529 9.1144 7.33301 9.66669 7.33301Z" stroke="black" stroke-linecap="round" stroke-linejoin="round"/>
</svg>
