<svg width="18" height="22" viewBox="0 0 18 22" fill="none" xmlns="http://www.w3.org/2000/svg">
<path d="M9 13.4522C9.31875 13.4522 9.58613 13.3446 9.80212 13.1294C10.0174 12.9149 10.125 12.6488 10.125 12.3312V10.0892H12.375C12.6938 10.0892 12.9611 9.98155 13.1771 9.76632C13.3924 9.55183 13.5 9.28578 13.5 8.96815C13.5 8.65053 13.3924 8.3841 13.1771 8.16887C12.9611 7.95438 12.6938 7.84713 12.375 7.84713H10.125V5.6051C10.125 5.28747 10.0174 5.02104 9.80212 4.80581C9.58613 4.59132 9.31875 4.48408 9 4.48408C8.68125 4.48408 8.41425 4.59132 8.199 4.80581C7.983 5.02104 7.875 5.28747 7.875 5.6051V7.84713H5.625C5.30625 7.84713 5.03925 7.95438 4.824 8.16887C4.608 8.3841 4.5 8.65053 4.5 8.96815C4.5 9.28578 4.608 9.55183 4.824 9.76632C5.03925 9.98155 5.30625 10.0892 5.625 10.0892H7.875V12.3312C7.875 12.6488 7.983 12.9149 8.199 13.1294C8.41425 13.3446 8.68125 13.4522 9 13.4522ZM9 19.4497C11.2875 17.3571 12.9844 15.4559 14.0906 13.7459C15.1969 12.0368 15.75 10.5189 15.75 9.19236C15.75 7.15584 15.0982 5.48814 13.7947 4.18925C12.492 2.89111 10.8938 2.24204 9 2.24204C7.10625 2.24204 5.50763 2.89111 4.20412 4.18925C2.90138 5.48814 2.25 7.15584 2.25 9.19236C2.25 10.5189 2.80312 12.0368 3.90937 13.7459C5.01562 15.4559 6.7125 17.3571 9 19.4497ZM9 22C8.85 22 8.7 21.972 8.55 21.9159C8.4 21.8599 8.26875 21.7851 8.15625 21.6917C5.41875 19.2815 3.375 17.0443 2.025 14.9802C0.675 12.9153 0 10.986 0 9.19236C0 6.38981 0.904875 4.15711 2.71463 2.49427C4.52363 0.831422 6.61875 0 9 0C11.3812 0 13.4764 0.831422 15.2854 2.49427C17.0951 4.15711 18 6.38981 18 9.19236C18 10.986 17.325 12.9153 15.975 14.9802C14.625 17.0443 12.5813 19.2815 9.84375 21.6917C9.73125 21.7851 9.6 21.8599 9.45 21.9159C9.3 21.972 9.15 22 9 22Z" fill="#FFC41F"/>
</svg>
