<svg width="29" height="29" viewBox="0 0 29 29" fill="none" xmlns="http://www.w3.org/2000/svg">
<path d="M22.6145 12.3214V11.4999C22.6145 6.98959 18.9582 3.33325 14.4478 3.33325C9.93752 3.33325 6.28118 6.98959 6.28118 11.4999V12.3214C6.28118 13.3072 5.98938 14.271 5.44254 15.0912L4.10251 17.1013C2.87851 18.9373 3.81293 21.4328 5.94176 22.0134C11.5108 23.5322 17.3849 23.5322 22.9539 22.0134C25.0828 21.4328 26.0172 18.9373 24.7932 17.1013L23.4532 15.0912C22.9063 14.271 22.6145 13.3072 22.6145 12.3214Z" stroke="#3E52BC" stroke-width="1.75"/>
<path d="M9.19777 23.1667C9.96197 25.2058 12.024 26.6667 14.4478 26.6667C16.8716 26.6667 18.9336 25.2058 19.6978 23.1667" stroke="#3E52BC" stroke-width="1.75" stroke-linecap="round"/>
<circle cx="20.4478" cy="8" r="7" fill="white" stroke="#3E52BC" stroke-width="1.5"/>
<path d="M19.999 8.71289H17.9204V7.53662H19.999V5.44189H21.1753V7.53662H23.2539V8.71289H21.1753V10.7808H19.999V8.71289Z" fill="#3E52BC"/>
</svg>
