<svg width="29" height="29" viewBox="0 0 29 29" fill="none" xmlns="http://www.w3.org/2000/svg">
<path d="M9.74376 24.6157C10.725 25.863 12.2665 26.6668 14 26.6668C15.7335 26.6668 17.275 25.863 18.2563 24.6157C15.4308 24.9985 12.5692 24.9985 9.74376 24.6157Z" fill="#3E52BC"/>
<path d="M21.874 11.5002V12.3216C21.874 13.3074 22.1553 14.2712 22.6826 15.0915L23.9746 17.1015C25.1547 18.9375 24.2538 21.4331 22.2012 22.0136C16.8318 23.5325 11.1682 23.5325 5.79876 22.0136C3.74622 21.4331 2.84529 18.9375 4.02542 17.1015L5.31743 15.0915C5.84467 14.2712 6.12602 13.3074 6.12602 12.3216V11.5002C6.12602 6.98984 9.65132 3.3335 14 3.3335C18.3487 3.3335 21.874 6.98984 21.874 11.5002Z" fill="#3E52BC"/>
<circle cx="21" cy="8" r="7" fill="#3E52BC" stroke="white" stroke-width="1.5"/>
<path d="M20.5513 8.71289H18.4727V7.53662H20.5513V5.44189H21.7275V7.53662H23.8062V8.71289H21.7275V10.7808H20.5513V8.71289Z" fill="white"/>
</svg>
