<svg width="40" height="40" viewBox="0 0 40 40" fill="none" xmlns="http://www.w3.org/2000/svg">
<path d="M19.9185 39.3558L8.35307 25.7161C8.19236 25.5113 8.03333 25.3052 7.87597 25.0978C5.90038 22.4954 4.83312 19.3167 4.83791 16.0494C4.83791 12.0498 6.42676 8.21394 9.25493 5.38577C12.0831 2.5576 15.9189 0.96875 19.9185 0.96875C23.9182 0.96875 27.754 2.5576 30.5822 5.38577C33.4103 8.21394 34.9992 12.0498 34.9992 16.0494C35.004 19.3152 33.9372 22.4925 31.9625 25.0937L31.9611 25.0978C31.9611 25.0978 31.5498 25.6379 31.4881 25.7106L19.9185 39.3558ZM10.064 23.4458C10.0668 23.4458 10.3848 23.868 10.4575 23.9585L19.9185 35.1168L29.3919 23.9434C29.4523 23.868 29.7731 23.443 29.7744 23.4417C31.3883 21.3154 32.2604 18.7187 32.2573 16.0494C32.2573 12.777 30.9573 9.63857 28.6433 7.32461C26.3294 5.01065 23.191 3.71069 19.9185 3.71069C16.6461 3.71069 13.5077 5.01065 11.1938 7.32461C8.87981 9.63857 7.57984 12.777 7.57984 16.0494C7.57697 18.7204 8.44873 21.3186 10.064 23.4458Z" fill="#3E52BC"/>
<path d="M10.064 23.4458C10.0668 23.4458 10.3848 23.868 10.4575 23.9585L19.9185 35.1168L29.3919 23.9434C29.4523 23.868 29.7731 23.443 29.7744 23.4417C31.3883 21.3154 32.2604 18.7187 32.2573 16.0494C32.2573 12.777 30.9573 9.63857 28.6433 7.32461C26.3294 5.01065 23.191 3.71069 19.9185 3.71069C16.6461 3.71069 13.5077 5.01065 11.1938 7.32461C8.87981 9.63857 7.57984 12.777 7.57984 16.0494C7.57697 18.7204 8.44873 21.3186 10.064 23.4458Z" fill="#3E52BC"/>
<circle cx="19.9999" cy="16.1308" r="11.9355" fill="white"/>
<path d="M19.9651 12.6683C18.7016 12.6685 17.4495 13.2333 17.5811 14.3618L17.9037 16.8149C17.9604 17.2467 18.2408 17.9367 18.6598 17.9367H18.6896L19.0327 22.2192C19.0475 22.4042 19.1766 22.5547 19.3553 22.5547H20.6456C20.8243 22.5547 20.9533 22.4042 20.9682 22.2192L21.3112 17.9367H21.3411C21.76 17.9367 22.0404 17.2465 22.0972 16.8149L22.4198 14.3618C22.5042 13.2323 21.2288 12.668 19.9651 12.6683Z" fill="#FFCD00"/>
<path d="M20.0004 12.2335C20.9358 12.2335 21.694 11.445 21.694 10.4722C21.694 9.49949 20.9358 8.71094 20.0004 8.71094C19.0651 8.71094 18.3069 9.49949 18.3069 10.4722C18.3069 11.445 19.0651 12.2335 20.0004 12.2335Z" fill="#FFCD00"/>
<path fill-rule="evenodd" clip-rule="evenodd" d="M19.9993 17.2642L20 17.2618L20.0043 17.2503L20.0035 17.2522C20.0022 17.2554 20.0011 17.2586 20 17.2618C19.9998 17.2626 19.9995 17.2634 19.9993 17.2642ZM19.9993 17.2642L19.9966 17.2715C19.9976 17.2691 19.9984 17.2666 19.9993 17.2642Z" fill="#FFCD00"/>
<path d="M17.4208 20.2947C15.1424 20.6295 13.5488 21.4305 13.5488 22.6095C13.5488 24.1977 16.2114 25.4851 20.0004 25.4851C23.7895 25.4851 26.4521 24.1977 26.4521 22.6095C26.4521 21.4305 24.8587 20.6295 22.5804 20.2947L22.2648 20.8536C23.9819 21.1014 25.1617 21.622 25.1617 22.2262C25.1617 23.0733 22.8509 23.7599 20.0004 23.7599C17.15 23.7599 14.8392 23.0733 14.8392 22.2262C14.839 21.624 16.0111 21.1039 17.7335 20.8551C17.6295 20.6683 17.525 20.4817 17.4208 20.2947Z" fill="#3E52BC"/>
</svg>
