<svg width="24" height="26" viewBox="0 0 24 26" fill="none" xmlns="http://www.w3.org/2000/svg">
<path d="M16.8 0.264933C16.2821 -0.252962 15.3853 0.100723 15.3853 0.820723V5.22914C15.3853 7.07335 16.9516 8.60178 18.8589 8.60178C20.0589 8.61441 21.7263 8.61441 23.1537 8.61441C23.8737 8.61441 24.2526 7.76809 23.7474 7.26283C21.9284 5.43125 18.6695 2.13441 16.8 0.264933Z" fill="#3E52BC"/>
<path d="M22.7368 10.3453H19.0863C16.0926 10.3453 13.6547 7.90737 13.6547 4.91368V1.26316C13.6547 0.568421 13.0863 0 12.3916 0H7.03579C3.14526 0 0 2.52632 0 7.03579V18.2274C0 22.7368 3.14526 25.2632 7.03579 25.2632H16.9642C20.8547 25.2632 24 22.7368 24 18.2274V11.6084C24 10.9137 23.4316 10.3453 22.7368 10.3453ZM11.3684 19.8947H6.31579C5.79789 19.8947 5.36842 19.4653 5.36842 18.9474C5.36842 18.4295 5.79789 18 6.31579 18H11.3684C11.8863 18 12.3158 18.4295 12.3158 18.9474C12.3158 19.4653 11.8863 19.8947 11.3684 19.8947ZM13.8947 14.8421H6.31579C5.79789 14.8421 5.36842 14.4126 5.36842 13.8947C5.36842 13.3768 5.79789 12.9474 6.31579 12.9474H13.8947C14.4126 12.9474 14.8421 13.3768 14.8421 13.8947C14.8421 14.4126 14.4126 14.8421 13.8947 14.8421Z" fill="#3E52BC"/>
</svg>
