<svg width="16" height="16" viewBox="0 0 16 16" fill="none" xmlns="http://www.w3.org/2000/svg">
<path d="M8.01339 1.93994C5.80673 1.93994 4.01339 3.73327 4.01339 5.93994V7.86661C4.01339 8.27327 3.84006 8.89327 3.63339 9.23994L2.86673 10.5133C2.39339 11.2999 2.72006 12.1733 3.58673 12.4666C6.46006 13.4266 9.56006 13.4266 12.4334 12.4666C13.2401 12.1999 13.5934 11.2466 13.1534 10.5133L12.3867 9.23994C12.1867 8.89327 12.0134 8.27327 12.0134 7.86661V5.93994C12.0134 3.73994 10.2134 1.93994 8.01339 1.93994Z" stroke="#292D32" stroke-miterlimit="10" stroke-linecap="round"/>
<path d="M9.24694 2.13346C9.04027 2.07346 8.82694 2.02679 8.60694 2.00012C7.96694 1.92012 7.35361 1.96679 6.78027 2.13346C6.97361 1.64012 7.45361 1.29346 8.01361 1.29346C8.57361 1.29346 9.05361 1.64012 9.24694 2.13346Z" stroke="#292D32" stroke-miterlimit="10" stroke-linecap="round" stroke-linejoin="round"/>
<path d="M10.0127 12.7065C10.0127 13.8065 9.1127 14.7065 8.0127 14.7065C7.46603 14.7065 6.95936 14.4799 6.59936 14.1199C6.23936 13.7599 6.0127 13.2532 6.0127 12.7065" stroke="#292D32" stroke-miterlimit="10"/>
</svg>
