<svg width="15" height="14" viewBox="0 0 15 14" fill="none" xmlns="http://www.w3.org/2000/svg">
<path d="M7.6875 0.333252C8.59918 0.333252 9.47352 0.684441 10.1182 1.30956C10.7628 1.93468 11.125 2.78253 11.125 3.66659C11.125 4.55064 10.7628 5.39849 10.1182 6.02361C9.47352 6.64873 8.59918 6.99992 7.6875 6.99992C6.77582 6.99992 5.90148 6.64873 5.25682 6.02361C4.61216 5.39849 4.25 4.55064 4.25 3.66659C4.25 2.78253 4.61216 1.93468 5.25682 1.30956C5.90148 0.684441 6.77582 0.333252 7.6875 0.333252ZM7.6875 8.66658C11.4859 8.66658 14.5625 10.1583 14.5625 11.9999V13.6666H0.8125V11.9999C0.8125 10.1583 3.88906 8.66658 7.6875 8.66658Z" fill="#959595"/>
</svg>
