<svg width="18" height="18" viewBox="0 0 18 18" fill="none" xmlns="http://www.w3.org/2000/svg">
<path fill-rule="evenodd" clip-rule="evenodd" d="M2.00745 1.40686C3.68752 -0.27321 6.52266 -0.145492 7.69248 1.95063L8.34149 3.11356C9.10541 4.48238 8.77987 6.20946 7.66157 7.34143C7.64668 7.36184 7.56774 7.47677 7.55791 7.67758C7.54536 7.93391 7.63639 8.52668 8.55482 9.44511C9.47295 10.3632 10.0656 10.4545 10.3221 10.442C10.5231 10.4322 10.6381 10.3533 10.6585 10.3383C11.7905 9.22006 13.5176 8.89452 14.8864 9.65844L16.0493 10.3075C18.1454 11.4773 18.2731 14.3124 16.5931 15.9925C15.6944 16.8911 14.4995 17.6896 13.0953 17.7429C11.0144 17.8218 7.55913 17.2844 4.13735 13.8626C0.715564 10.4408 0.178177 6.98556 0.257065 4.90463C0.310297 3.50044 1.10879 2.30552 2.00745 1.40686ZM6.38265 2.68163C5.78363 1.60828 4.17394 1.36169 3.06811 2.46752C2.29276 3.24287 1.7887 4.09868 1.75599 4.96146C1.6902 6.6968 2.11864 9.72256 5.19801 12.8019C8.27737 15.8813 11.3031 16.3097 13.0385 16.2439C13.9013 16.2112 14.7571 15.7072 15.5324 14.9318C16.6382 13.826 16.3916 12.2163 15.3183 11.6173L14.1554 10.9683C13.432 10.5645 12.4158 10.7023 11.7025 11.4156L11.7023 11.4158C11.6322 11.4858 11.1864 11.9018 10.395 11.9403C9.58474 11.9797 8.604 11.6156 7.49416 10.5058C6.38395 9.39556 6.02003 8.41456 6.0597 7.60423C6.09846 6.81271 6.51468 6.36711 6.58432 6.29746L6.58436 6.29743C7.29767 5.58411 7.43539 4.56797 7.03166 3.84456L6.38265 2.68163Z" fill="#3E52BC"/>
</svg>
