<svg width="47" height="47" viewBox="0 0 47 47" fill="none" xmlns="http://www.w3.org/2000/svg">
<path d="M23.6213 45.3604L10.4656 29.8453C10.2828 29.6123 10.1018 29.3778 9.92286 29.1419C7.67562 26.1817 6.46161 22.566 6.46706 18.8495C6.46706 14.2999 8.27438 9.93667 11.4914 6.71965C14.7085 3.50262 19.0717 1.69531 23.6213 1.69531C28.1709 1.69531 32.5341 3.50262 35.7512 6.71965C38.9682 9.93667 40.7755 14.2999 40.7755 18.8495C40.781 22.5643 39.5675 26.1784 37.3213 29.1373L37.3197 29.1419C37.3197 29.1419 36.8519 29.7564 36.7817 29.839L23.6213 45.3604ZM12.4118 27.2628C12.4149 27.2628 12.7767 27.7431 12.8594 27.846L23.6213 40.5385L34.3973 27.8289C34.4659 27.7431 34.8308 27.2597 34.8324 27.2581C36.6681 24.8395 37.6602 21.8858 37.6566 18.8495C37.6566 15.1271 36.1779 11.5572 33.5457 8.92507C30.9136 6.29295 27.3437 4.81425 23.6213 4.81425C19.8989 4.81425 16.329 6.29295 13.6968 8.92507C11.0647 11.5572 9.58601 15.1271 9.58601 18.8495C9.58274 21.8877 10.5744 24.8431 12.4118 27.2628Z" fill="#3E52BC"/>
<path d="M12.4118 27.2628C12.4149 27.2628 12.7767 27.7431 12.8594 27.846L23.6213 40.5385L34.3973 27.8289C34.4659 27.7431 34.8308 27.2597 34.8324 27.2581C36.6681 24.8395 37.6602 21.8858 37.6566 18.8495C37.6566 15.1271 36.1779 11.5572 33.5457 8.92507C30.9136 6.29295 27.3437 4.81425 23.6213 4.81425C19.8989 4.81425 16.329 6.29295 13.6968 8.92507C11.0647 11.5572 9.58601 15.1271 9.58601 18.8495C9.58274 21.8877 10.5744 24.8431 12.4118 27.2628Z" fill="#3E52BC"/>
<ellipse cx="23.7131" cy="18.9418" rx="13.5766" ry="13.5765" fill="white"/>
<ellipse cx="23.8969" cy="19.1247" rx="7.52218" ry="7.52214" fill="#FFCD00"/>
</svg>
