<svg width="37" height="36" viewBox="0 0 37 36" fill="none" xmlns="http://www.w3.org/2000/svg">
<path d="M10.7063 29.3798C10.7063 30.1951 10.4393 30.82 9.90523 31.2543C9.37118 31.6887 8.61104 31.9059 7.62483 31.9059H6.81307V34.8271H5.53669V27.0193H7.78504C8.76058 27.0193 9.49045 27.2187 9.97465 27.6175C10.4624 28.0162 10.7063 28.6037 10.7063 29.3798ZM6.81307 30.8324H7.49132C8.14642 30.8324 8.62706 30.7185 8.93325 30.4907C9.23944 30.2628 9.39254 29.9068 9.39254 29.4226C9.39254 28.9739 9.25546 28.6393 8.98132 28.4185C8.70717 28.1978 8.27993 28.0874 7.6996 28.0874H6.81307V30.8324ZM15.1282 28.8137C15.381 28.8137 15.5893 28.8315 15.7531 28.8671L15.6303 30.0367C15.4522 29.994 15.2671 29.9726 15.0748 29.9726C14.5728 29.9726 14.1652 30.1364 13.8519 30.464C13.5421 30.7915 13.3872 31.217 13.3872 31.7403V34.8271H12.1322V28.9205H13.1149L13.2804 29.9619H13.3445C13.5403 29.6095 13.7949 29.33 14.1082 29.1235C14.4251 28.917 14.7651 28.8137 15.1282 28.8137ZM22.0923 31.8632C22.0923 32.828 21.8448 33.581 21.3499 34.1222C20.8551 34.6634 20.1661 34.934 19.2832 34.934C18.7313 34.934 18.2435 34.8093 17.8199 34.5601C17.3962 34.3109 17.0704 33.9531 16.8425 33.4867C16.6147 33.0203 16.5008 32.4791 16.5008 31.8632C16.5008 30.9054 16.7464 30.1578 17.2377 29.6202C17.7291 29.0825 18.4216 28.8137 19.3152 28.8137C20.1697 28.8137 20.8462 29.0897 21.3446 29.6415C21.843 30.1898 22.0923 30.9304 22.0923 31.8632ZM17.7932 31.8632C17.7932 33.2268 18.2969 33.9086 19.3045 33.9086C20.3014 33.9086 20.7999 33.2268 20.7999 31.8632C20.7999 30.5138 20.2979 29.8391 19.2938 29.8391C18.7669 29.8391 18.3842 30.0136 18.1456 30.3625C17.9107 30.7114 17.7932 31.2116 17.7932 31.8632ZM26.5035 29.8712H25.0616V34.8271H23.8012V29.8712H22.8293V29.2837L23.8012 28.8992V28.5147C23.8012 27.8168 23.965 27.3006 24.2926 26.9659C24.6201 26.6277 25.1203 26.4586 25.7932 26.4586C26.2347 26.4586 26.6691 26.5316 27.0963 26.6775L26.7652 27.6281C26.4555 27.5285 26.16 27.4786 25.8787 27.4786C25.5939 27.4786 25.3856 27.5676 25.2539 27.7456C25.1257 27.9201 25.0616 28.1836 25.0616 28.536V28.9205H26.5035V29.8712ZM28.7626 34.8271H27.5075V28.9205H28.7626V34.8271ZM27.4328 27.3558C27.4328 27.1315 27.4933 26.9588 27.6144 26.8377C27.739 26.7167 27.9152 26.6562 28.1431 26.6562C28.3638 26.6562 28.5347 26.7167 28.6558 26.8377C28.7804 26.9588 28.8427 27.1315 28.8427 27.3558C28.8427 27.5694 28.7804 27.7385 28.6558 27.8631C28.5347 27.9842 28.3638 28.0447 28.1431 28.0447C27.9152 28.0447 27.739 27.9842 27.6144 27.8631C27.4933 27.7385 27.4328 27.5694 27.4328 27.3558ZM31.8227 34.8271H30.5677V26.5173H31.8227V34.8271Z" fill="#3E52BC"/>
<circle cx="19" cy="6" r="4" fill="#3E52BC"/>
<path d="M27 17.5C27 19.9853 27 22 19 22C11 22 11 19.9853 11 17.5C11 15.0147 14.5817 13 19 13C23.4183 13 27 15.0147 27 17.5Z" fill="#3E52BC"/>
</svg>
