<svg width="37" height="36" viewBox="0 0 37 36" fill="none" xmlns="http://www.w3.org/2000/svg">
<path d="M8.39395 27.0196C9.40153 27.0196 10.1367 27.2172 10.5996 27.6124C11.066 28.004 11.2992 28.5665 11.2992 29.3C11.2992 29.6311 11.244 29.9462 11.1336 30.2452C11.0268 30.5407 10.8524 30.8024 10.6103 31.0303C10.3682 31.2546 10.0495 31.4326 9.65431 31.5643C9.26268 31.6925 8.78203 31.7566 8.21238 31.7566H7.26177V34.8274H6.35388V27.0196H8.39395ZM8.30851 27.7939H7.26177V30.9769H8.11091C8.60935 30.9769 9.02413 30.9235 9.35525 30.8167C9.68992 30.7099 9.94092 30.5372 10.1083 30.2986C10.2756 30.0565 10.3593 29.7361 10.3593 29.3373C10.3593 28.8175 10.1937 28.4312 9.86259 28.1785C9.53148 27.9221 9.01345 27.7939 8.30851 27.7939ZM15.4594 28.8674C15.5769 28.8674 15.6998 28.8745 15.8279 28.8887C15.9561 28.8994 16.07 28.9154 16.1697 28.9368L16.0576 29.7592C15.9615 29.7343 15.8546 29.7147 15.7372 29.7005C15.6197 29.6863 15.5093 29.6791 15.406 29.6791C15.1711 29.6791 14.9485 29.7272 14.7385 29.8233C14.532 29.9159 14.3504 30.0512 14.1937 30.2292C14.0371 30.4037 13.9143 30.6155 13.8253 30.8647C13.7362 31.1104 13.6917 31.3845 13.6917 31.6872V34.8274H12.7999V28.9742H13.5369L13.633 30.053H13.6704C13.7914 29.8358 13.9374 29.6382 14.1083 29.4602C14.2792 29.2786 14.4768 29.1344 14.7011 29.0276C14.929 28.9208 15.1817 28.8674 15.4594 28.8674ZM22.322 31.8901C22.322 32.3708 22.2597 32.7998 22.1351 33.1772C22.0105 33.5546 21.8307 33.8732 21.5957 34.1331C21.3607 34.393 21.0759 34.5924 20.7412 34.7313C20.4101 34.8666 20.0345 34.9342 19.6144 34.9342C19.2227 34.9342 18.8631 34.8666 18.5356 34.7313C18.2116 34.5924 17.9303 34.393 17.6918 34.1331C17.4568 33.8732 17.2734 33.5546 17.1417 33.1772C17.0135 32.7998 16.9495 32.3708 16.9495 31.8901C16.9495 31.2493 17.058 30.7045 17.2752 30.2559C17.4924 29.8038 17.8022 29.4602 18.2045 29.2252C18.6104 28.9867 19.0928 28.8674 19.6518 28.8674C20.1858 28.8674 20.6522 28.9867 21.051 29.2252C21.4533 29.4637 21.7648 29.8091 21.9856 30.2613C22.2099 30.7099 22.322 31.2528 22.322 31.8901ZM17.868 31.8901C17.868 32.3601 17.9303 32.7677 18.0549 33.1131C18.1796 33.4584 18.3718 33.7255 18.6317 33.9142C18.8916 34.1029 19.2263 34.1972 19.6357 34.1972C20.0416 34.1972 20.3745 34.1029 20.6344 33.9142C20.8979 33.7255 21.0919 33.4584 21.2165 33.1131C21.3411 32.7677 21.4034 32.3601 21.4034 31.8901C21.4034 31.4237 21.3411 31.0214 21.2165 30.6832C21.0919 30.3414 20.8997 30.0779 20.6397 29.8928C20.3798 29.7076 20.0434 29.6151 19.6304 29.6151C19.0216 29.6151 18.5747 29.8162 18.2899 30.2185C18.0087 30.6209 17.868 31.178 17.868 31.8901ZM26.4609 29.6685H25.0029V34.8274H24.1164V29.6685H23.0804V29.2412L24.1164 28.9475V28.5576C24.1164 28.0663 24.1894 27.6675 24.3354 27.3614C24.4814 27.0516 24.6932 26.8237 24.9709 26.6778C25.2486 26.5318 25.5868 26.4588 25.9856 26.4588C26.2099 26.4588 26.4146 26.4784 26.5998 26.5176C26.7885 26.5567 26.954 26.6012 27.0964 26.6511L26.8668 27.3507C26.7457 27.3115 26.6087 27.2759 26.4556 27.2439C26.306 27.2083 26.1529 27.1905 25.9963 27.1905C25.658 27.1905 25.407 27.3008 25.2433 27.5216C25.083 27.7388 25.0029 28.0805 25.0029 28.547V28.9742H26.4609V29.6685ZM28.4209 28.9742V34.8274H27.5343V28.9742H28.4209ZM27.9883 26.7846C28.1343 26.7846 28.2589 26.8326 28.3621 26.9288C28.4689 27.0213 28.5223 27.1673 28.5223 27.3667C28.5223 27.5625 28.4689 27.7085 28.3621 27.8046C28.2589 27.9008 28.1343 27.9488 27.9883 27.9488C27.8352 27.9488 27.707 27.9008 27.6038 27.8046C27.5041 27.7085 27.4542 27.5625 27.4542 27.3667C27.4542 27.1673 27.5041 27.0213 27.6038 26.9288C27.707 26.8326 27.8352 26.7846 27.9883 26.7846ZM31.1873 34.8274H30.2954V26.5176H31.1873V34.8274Z" fill="#959595"/>
<circle cx="18.4775" cy="6.00024" r="4" stroke="#959595" stroke-width="1.5"/>
<path d="M26.4775 17.5002C26.4775 19.9855 26.4775 22.0002 18.4775 22.0002C10.4775 22.0002 10.4775 19.9855 10.4775 17.5002C10.4775 15.015 14.0593 13.0002 18.4775 13.0002C22.8958 13.0002 26.4775 15.015 26.4775 17.5002Z" stroke="#959595" stroke-width="1.5"/>
</svg>
