<svg width="57" height="46" viewBox="0 0 57 46" fill="none" xmlns="http://www.w3.org/2000/svg">
<path d="M35.3852 28.4833C37.7314 28.4833 39.9814 27.5513 41.6404 25.8923C43.2994 24.2334 44.2314 21.9833 44.2314 19.6372C44.2314 17.291 43.2994 15.041 41.6404 13.382C39.9814 11.723 37.7314 10.791 35.3852 10.791C33.0391 10.791 30.789 11.723 29.13 13.382C27.4711 15.041 26.5391 17.291 26.5391 19.6372C26.5391 21.9833 27.4711 24.2334 29.13 25.8923C30.789 27.5513 33.0391 28.4833 35.3852 28.4833Z" fill="#3E52BC"/>
<path d="M7.07692 0C5.20001 0 3.39996 0.745602 2.07278 2.07278C0.745602 3.39996 0 5.20001 0 7.07692L0 38.9231C0 40.8 0.745602 42.6 2.07278 43.9272C3.39996 45.2544 5.20001 46 7.07692 46H49.5385C51.4154 46 53.2154 45.2544 54.5426 43.9272C55.8698 42.6 56.6154 40.8 56.6154 38.9231V7.07692C56.6154 5.20001 55.8698 3.39996 54.5426 2.07278C53.2154 0.745602 51.4154 0 49.5385 0H7.07692ZM3.53846 7.07692C3.53846 6.13846 3.91126 5.23844 4.57485 4.57485C5.23844 3.91126 6.13846 3.53846 7.07692 3.53846H14.1538V10.6154H3.53846V7.07692ZM17.6923 42.4615V3.53846H49.5385C50.4769 3.53846 51.3769 3.91126 52.0405 4.57485C52.7041 5.23844 53.0769 6.13846 53.0769 7.07692V38.9231C53.0769 39.9315 52.6523 40.8445 51.98 41.4885C50.0692 37.1326 45.3702 31.8462 35.3846 31.8462C24.6383 31.8462 20.01 37.9677 18.4071 42.4615H17.6923ZM3.53846 35.3846H14.1538V42.4615H7.07692C6.13846 42.4615 5.23844 42.0887 4.57485 41.4251C3.91126 40.7616 3.53846 39.8615 3.53846 38.9231V35.3846ZM14.1538 31.8462H3.53846V24.7692H14.1538V31.8462ZM14.1538 21.2308H3.53846V14.1538H14.1538V21.2308Z" fill="#3E52BC"/>
</svg>
