<svg width="24" height="24" viewBox="0 0 24 24" fill="none" xmlns="http://www.w3.org/2000/svg">
<path d="M11.7521 0.75C13.0807 0.75 14.3604 1.29646 15.3081 2.27826C16.2568 3.26096 16.7942 4.59925 16.7942 6C16.7942 7.40075 16.2568 8.73904 15.3081 9.72174C14.3604 10.7035 13.0807 11.25 11.7521 11.25C10.4236 11.25 9.14388 10.7035 8.19611 9.72174C7.24746 8.73904 6.71005 7.40075 6.71005 6C6.71005 4.59925 7.24746 3.26096 8.19611 2.27826C9.14388 1.29646 10.4236 0.75 11.7521 0.75ZM11.7521 15.75C14.8574 15.75 17.6303 16.403 19.5994 17.4228C21.6059 18.4621 22.5863 19.7656 22.5863 21V22C22.5863 22.6904 22.0266 23.25 21.3363 23.25H2.16797C1.47761 23.25 0.917969 22.6904 0.917969 22V21C0.917969 19.7656 1.89833 18.4621 3.90489 17.4228C5.87397 16.403 8.64684 15.75 11.7521 15.75Z" stroke="#3E52BC" stroke-width="1.5"/>
</svg>
