<svg width="24" height="24" viewBox="0 0 24 24" fill="none" xmlns="http://www.w3.org/2000/svg">
<g clip-path="url(#clip0_688_22259)">
<g filter="url(#filter0_d_688_22259)">
<path d="M12 21C17.5228 21 22 16.5228 22 11C22 5.47715 17.5228 1 12 1C6.47715 1 2 5.47715 2 11C2 16.5228 6.47715 21 12 21Z" fill="white"/>
</g>
<path d="M12 18C15.866 18 19 14.866 19 11C19 7.13401 15.866 4 12 4C8.13401 4 5 7.13401 5 11C5 14.866 8.13401 18 12 18Z" fill="#3E52BC"/>
</g>
<defs>
<filter id="filter0_d_688_22259" x="0" y="0" width="24" height="24" filterUnits="userSpaceOnUse" color-interpolation-filters="sRGB">
<feFlood flood-opacity="0" result="BackgroundImageFix"/>
<feColorMatrix in="SourceAlpha" type="matrix" values="0 0 0 0 0 0 0 0 0 0 0 0 0 0 0 0 0 0 127 0" result="hardAlpha"/>
<feOffset dy="1"/>
<feGaussianBlur stdDeviation="1"/>
<feComposite in2="hardAlpha" operator="out"/>
<feColorMatrix type="matrix" values="0 0 0 0 0 0 0 0 0 0 0 0 0 0 0 0 0 0 0.25 0"/>
<feBlend mode="normal" in2="BackgroundImageFix" result="effect1_dropShadow_688_22259"/>
<feBlend mode="normal" in="SourceGraphic" in2="effect1_dropShadow_688_22259" result="shape"/>
</filter>
<clipPath id="clip0_688_22259">
<rect width="24" height="24" fill="white"/>
</clipPath>
</defs>
</svg>
