<svg width="37" height="36" viewBox="0 0 37 36" fill="none" xmlns="http://www.w3.org/2000/svg">
<path d="M5.61298 28.7363H8.34198V32.5227C7.93254 32.6616 7.51064 32.7648 7.07628 32.8325C6.64548 32.9001 6.16305 32.934 5.629 32.934C4.81724 32.934 4.13188 32.772 3.5729 32.448C3.01749 32.124 2.59559 31.6629 2.3072 31.0648C2.01882 30.4631 1.87462 29.7492 1.87462 28.9232C1.87462 28.115 2.03306 27.4101 2.34993 26.8084C2.67036 26.2067 3.13142 25.7403 3.73312 25.4092C4.33838 25.0745 5.06469 24.9072 5.91205 24.9072C6.34641 24.9072 6.75763 24.9481 7.14571 25.03C7.53734 25.1083 7.9005 25.2205 8.23517 25.3665L7.88804 26.1569C7.59965 26.0322 7.281 25.9254 6.93209 25.8364C6.58673 25.7474 6.22892 25.7029 5.85864 25.7029C5.22134 25.7029 4.67483 25.8346 4.21911 26.0981C3.76694 26.3616 3.41981 26.7336 3.17771 27.2143C2.93916 27.6949 2.81989 28.2646 2.81989 28.9232C2.81989 29.5748 2.92492 30.1427 3.13498 30.6269C3.34504 31.1075 3.67259 31.4813 4.11764 31.7484C4.56268 32.0154 5.13589 32.1489 5.83728 32.1489C6.18975 32.1489 6.49238 32.1293 6.74517 32.0902C6.99795 32.0474 7.22759 31.9976 7.43409 31.9406V29.5481H5.61298V28.7363ZM15.1458 29.8899C15.1458 30.3705 15.0835 30.7995 14.9589 31.1769C14.8343 31.5543 14.6545 31.873 14.4195 32.1329C14.1845 32.3928 13.8997 32.5922 13.565 32.731C13.2339 32.8663 12.8583 32.934 12.4382 32.934C12.0465 32.934 11.6869 32.8663 11.3594 32.731C11.0354 32.5922 10.7541 32.3928 10.5156 32.1329C10.2806 31.873 10.0972 31.5543 9.9655 31.1769C9.83732 30.7995 9.77324 30.3705 9.77324 29.8899C9.77324 29.249 9.88183 28.7043 10.099 28.2557C10.3162 27.8035 10.6259 27.4599 11.0283 27.225C11.4341 26.9864 11.9166 26.8671 12.4755 26.8671C13.0096 26.8671 13.476 26.9864 13.8747 27.225C14.2771 27.4635 14.5886 27.8088 14.8093 28.261C15.0336 28.7096 15.1458 29.2526 15.1458 29.8899ZM10.6918 29.8899C10.6918 30.3598 10.7541 30.7675 10.8787 31.1128C11.0033 31.4582 11.1956 31.7252 11.4555 31.9139C11.7154 32.1026 12.0501 32.197 12.4595 32.197C12.8654 32.197 13.1983 32.1026 13.4582 31.9139C13.7217 31.7252 13.9157 31.4582 14.0403 31.1128C14.1649 30.7675 14.2272 30.3598 14.2272 29.8899C14.2272 29.4235 14.1649 29.0211 14.0403 28.6829C13.9157 28.3411 13.7234 28.0777 13.4635 27.8925C13.2036 27.7074 12.8672 27.6148 12.4542 27.6148C11.8454 27.6148 11.3985 27.816 11.1137 28.2183C10.8324 28.6206 10.6918 29.1778 10.6918 29.8899ZM10.9481 25.3825C10.9481 25.2045 10.9944 25.0745 11.087 24.9926C11.1796 24.9107 11.2935 24.8698 11.4288 24.8698C11.5676 24.8698 11.6834 24.9107 11.7759 24.9926C11.8721 25.0745 11.9201 25.2045 11.9201 25.3825C11.9201 25.5569 11.8721 25.6887 11.7759 25.7777C11.6834 25.8631 11.5676 25.9058 11.4288 25.9058C11.2935 25.9058 11.1796 25.8631 11.087 25.7777C10.9944 25.6887 10.9481 25.5569 10.9481 25.3825ZM12.9989 25.3825C12.9989 25.2045 13.0452 25.0745 13.1378 24.9926C13.2303 24.9107 13.3425 24.8698 13.4742 24.8698C13.6095 24.8698 13.7252 24.9107 13.8213 24.9926C13.9175 25.0745 13.9655 25.2045 13.9655 25.3825C13.9655 25.5569 13.9175 25.6887 13.8213 25.7777C13.7252 25.8631 13.6095 25.9058 13.4742 25.9058C13.3425 25.9058 13.2303 25.8631 13.1378 25.7777C13.0452 25.6887 12.9989 25.5569 12.9989 25.3825ZM20.4382 32.8271H16.1712V32.2397L19.3808 27.6682H16.3741V26.9739H20.3688V27.6308L17.2019 32.1382H20.4382V32.8271ZM22.6973 32.8271H21.8054V24.5173H22.6973V32.8271ZM26.8255 26.8671C27.3239 26.8671 27.7512 26.9775 28.1072 27.1983C28.4632 27.419 28.7356 27.7287 28.9243 28.1275C29.113 28.5227 29.2074 28.9855 29.2074 29.516V30.0661H25.1646C25.1753 30.7533 25.3462 31.2766 25.6773 31.6362C26.0084 31.9958 26.4748 32.1756 27.0765 32.1756C27.4468 32.1756 27.7743 32.1418 28.0591 32.0741C28.344 32.0065 28.6395 31.9068 28.9457 31.7751V32.5548C28.6502 32.6865 28.3564 32.7826 28.0645 32.8432C27.7761 32.9037 27.4343 32.934 27.0391 32.934C26.4766 32.934 25.9852 32.82 25.5651 32.5922C25.1486 32.3607 24.8246 32.0225 24.5932 31.5775C24.3617 31.1324 24.246 30.5877 24.246 29.9433C24.246 29.3131 24.351 28.7684 24.5611 28.3091C24.7747 27.8462 25.0738 27.4902 25.4583 27.241C25.8464 26.9918 26.3021 26.8671 26.8255 26.8671ZM26.8148 27.5934C26.3413 27.5934 25.9639 27.7483 25.6826 28.0581C25.4013 28.3678 25.234 28.8004 25.1806 29.3558H28.2781C28.2745 29.0069 28.2194 28.7007 28.1125 28.4372C28.0093 28.1702 27.8509 27.9637 27.6372 27.8177C27.4236 27.6682 27.1495 27.5934 26.8148 27.5934ZM32.3476 35.4547C31.5785 35.4547 30.9857 35.3105 30.5692 35.0221C30.1526 34.7373 29.9443 34.3367 29.9443 33.8205C29.9443 33.4538 30.0601 33.1405 30.2915 32.8806C30.5265 32.6206 30.8505 32.448 31.2635 32.3625C31.1104 32.2913 30.9786 32.1845 30.8683 32.0421C30.7614 31.8997 30.708 31.7359 30.708 31.5508C30.708 31.3371 30.7668 31.1502 30.8843 30.99C31.0053 30.8262 31.1887 30.6696 31.4343 30.52C31.1282 30.3954 30.8789 30.1854 30.6867 29.8899C30.498 29.5908 30.4036 29.2437 30.4036 28.8485C30.4036 28.4283 30.4909 28.0705 30.6653 27.775C30.8398 27.476 31.0926 27.2481 31.4237 27.0914C31.7548 26.9348 32.1553 26.8565 32.6253 26.8565C32.7285 26.8565 32.8318 26.8618 32.935 26.8725C33.0418 26.8796 33.1433 26.8921 33.2394 26.9099C33.3356 26.9241 33.4192 26.9419 33.4904 26.9633H35.4985V27.5347L34.4197 27.6682C34.5265 27.8071 34.6155 27.9744 34.6867 28.1702C34.7579 28.366 34.7935 28.5832 34.7935 28.8218C34.7935 29.4057 34.5959 29.8703 34.2007 30.2156C33.8055 30.5574 33.2626 30.7283 32.5719 30.7283C32.4081 30.7283 32.2408 30.7141 32.0699 30.6856C31.8954 30.7817 31.7619 30.8885 31.6693 31.006C31.5803 31.1235 31.5358 31.2588 31.5358 31.4119C31.5358 31.5258 31.5696 31.6166 31.6373 31.6843C31.7085 31.7519 31.81 31.8018 31.9417 31.8338C32.0734 31.8623 32.2319 31.8765 32.417 31.8765H33.4477C34.085 31.8765 34.5728 32.0101 34.911 32.2771C35.2528 32.5441 35.4237 32.934 35.4237 33.4466C35.4237 34.0946 35.1602 34.5913 34.6333 34.9367C34.1064 35.282 33.3445 35.4547 32.3476 35.4547ZM32.3743 34.7604C32.8585 34.7604 33.259 34.7106 33.5759 34.6109C33.8963 34.5147 34.1349 34.3741 34.2915 34.189C34.4517 34.0074 34.5318 33.7902 34.5318 33.5374C34.5318 33.3025 34.4784 33.1244 34.3716 33.0034C34.2648 32.8859 34.1082 32.8076 33.9017 32.7684C33.6952 32.7257 33.4424 32.7043 33.1433 32.7043H32.1286C31.8651 32.7043 31.6355 32.7453 31.4397 32.8271C31.2439 32.909 31.0926 33.0301 30.9857 33.1903C30.8825 33.3505 30.8309 33.5499 30.8309 33.7884C30.8309 34.1053 30.9644 34.3456 31.2314 34.5094C31.4984 34.6767 31.8794 34.7604 32.3743 34.7604ZM32.6039 30.0821C33.0276 30.0821 33.3463 29.9753 33.5599 29.7617C33.7735 29.5481 33.8803 29.2365 33.8803 28.8271C33.8803 28.3892 33.7717 28.0616 33.5545 27.8445C33.3373 27.6237 33.0169 27.5133 32.5932 27.5133C32.1874 27.5133 31.874 27.6273 31.6533 27.8551C31.4361 28.0794 31.3275 28.4088 31.3275 28.8431C31.3275 29.2419 31.4379 29.5481 31.6586 29.7617C31.8794 29.9753 32.1945 30.0821 32.6039 30.0821Z" fill="#959595"/>
<circle cx="19.0208" cy="11.0212" r="9.10417" stroke="#959595" stroke-width="1.5"/>
<path d="M25.7292 17.7295L29.0833 21.0837" stroke="#959595" stroke-width="1.4375" stroke-linecap="round"/>
<path d="M16.642 5.75537C16.5394 5.52839 16.6399 5.25961 16.8737 5.17375C17.633 4.89493 18.4408 4.76616 19.252 4.79628C20.2137 4.83199 21.1541 5.09005 21.9993 5.55022C22.8445 6.01038 23.5717 6.66013 24.1236 7.44849C24.5892 8.11348 24.9195 8.86183 25.0974 9.65091C25.1522 9.89388 24.981 10.1241 24.7347 10.1612C24.4884 10.1982 24.2606 10.028 24.2028 9.78571C24.0475 9.13427 23.7704 8.5166 23.3848 7.9658C22.9127 7.29158 22.2909 6.73591 21.568 6.34238C20.8452 5.94885 20.041 5.72815 19.2185 5.69761C18.5466 5.67266 17.8774 5.77518 17.246 5.99829C17.0112 6.08127 16.7445 5.98235 16.642 5.75537Z" fill="#959595"/>
</svg>
