<svg width="38" height="36" viewBox="0 0 38 36" fill="none" xmlns="http://www.w3.org/2000/svg">
<path d="M5.78683 28.5924H8.66003V32.5123C8.19006 32.6654 7.7379 32.774 7.30354 32.8381C6.87273 32.9022 6.40633 32.9342 5.90432 32.9342C4.72229 32.9342 3.81084 32.5853 3.16998 31.8875C2.52912 31.1861 2.20869 30.1981 2.20869 28.9235C2.20869 27.6667 2.57006 26.684 3.29281 25.9755C4.01556 25.2634 5.01068 24.9074 6.27816 24.9074C7.09348 24.9074 7.86607 25.0641 8.59594 25.3774L8.14734 26.4401C7.5136 26.1482 6.87985 26.0022 6.24611 26.0022C5.41299 26.0022 4.75433 26.2639 4.27013 26.7873C3.78592 27.3106 3.54382 28.0263 3.54382 28.9342C3.54382 29.8883 3.761 30.6146 4.19536 31.1131C4.63328 31.608 5.26168 31.8554 6.08056 31.8554C6.49356 31.8554 6.93504 31.8038 7.40501 31.7005V29.6872H5.78683V28.5924ZM15.6454 29.8634C15.6454 30.8283 15.398 31.5813 14.9031 32.1224C14.4082 32.6636 13.7193 32.9342 12.8363 32.9342C12.2845 32.9342 11.7967 32.8096 11.373 32.5604C10.9493 32.3111 10.6236 31.9533 10.3957 31.4869C10.1678 31.0205 10.0539 30.4793 10.0539 29.8634C10.0539 28.9057 10.2996 28.158 10.7909 27.6204C11.2822 27.0828 11.9747 26.814 12.8683 26.814C13.7228 26.814 14.3993 27.0899 14.8977 27.6418C15.3962 28.19 15.6454 28.9306 15.6454 29.8634ZM11.3463 29.8634C11.3463 31.227 11.8501 31.9088 12.8577 31.9088C13.8546 31.9088 14.353 31.227 14.353 29.8634C14.353 28.514 13.851 27.8394 12.847 27.8394C12.3201 27.8394 11.9373 28.0138 11.6988 28.3627C11.4638 28.7116 11.3463 29.2119 11.3463 29.8634ZM11.1701 25.356C11.1701 25.1353 11.2288 24.9768 11.3463 24.8807C11.4674 24.781 11.6133 24.7312 11.7842 24.7312C11.9729 24.7312 12.1225 24.7864 12.2328 24.8967C12.3468 25.0071 12.4037 25.1602 12.4037 25.356C12.4037 25.5447 12.3468 25.696 12.2328 25.81C12.1189 25.9239 11.9694 25.9809 11.7842 25.9809C11.6133 25.9809 11.4674 25.9292 11.3463 25.826C11.2288 25.7227 11.1701 25.5661 11.1701 25.356ZM13.2689 25.356C13.2689 25.1353 13.3276 24.9768 13.4451 24.8807C13.5662 24.781 13.7121 24.7312 13.883 24.7312C14.0717 24.7312 14.2231 24.7864 14.337 24.8967C14.4509 25.0071 14.5079 25.1602 14.5079 25.356C14.5079 25.5483 14.4491 25.7014 14.3316 25.8153C14.2142 25.9257 14.0646 25.9809 13.883 25.9809C13.7121 25.9809 13.5662 25.9292 13.4451 25.826C13.3276 25.7227 13.2689 25.5661 13.2689 25.356ZM21.0393 32.8274H16.5586V32.053L19.544 27.8821H16.7402V26.9208H20.9539V27.7966L18.0326 31.8661H21.0393V32.8274ZM23.5814 32.8274H22.3264V24.5176H23.5814V32.8274ZM27.9606 32.9342C27.0421 32.9342 26.3229 32.6672 25.8031 32.1331C25.2868 31.5955 25.0287 30.8567 25.0287 29.9168C25.0287 28.952 25.269 28.1936 25.7497 27.6418C26.2303 27.0899 26.8907 26.814 27.731 26.814C28.5107 26.814 29.1266 27.0507 29.5788 27.5243C30.031 27.9978 30.257 28.6493 30.257 29.4789V30.1571H26.3211C26.3389 30.7304 26.4938 31.1718 26.7857 31.4816C27.0777 31.7878 27.4889 31.9409 28.0194 31.9409C28.3683 31.9409 28.6923 31.9088 28.9913 31.8447C29.294 31.7771 29.618 31.6667 29.9633 31.5136V32.5337C29.6571 32.6796 29.3474 32.7829 29.0341 32.8434C28.7208 32.9039 28.3629 32.9342 27.9606 32.9342ZM27.731 27.7646C27.3322 27.7646 27.0118 27.891 26.7697 28.1438C26.5312 28.3965 26.3887 28.765 26.3425 29.2493H29.0234C29.0163 28.7615 28.8988 28.393 28.6709 28.1438C28.4431 27.891 28.1297 27.7646 27.731 27.7646ZM36.671 26.9208V27.6097L35.6616 27.7966C35.7542 27.9212 35.8308 28.0743 35.8913 28.2559C35.9518 28.4375 35.9821 28.6298 35.9821 28.8327C35.9821 29.4415 35.772 29.9204 35.3519 30.2693C34.9318 30.6182 34.3532 30.7927 33.6162 30.7927C33.4275 30.7927 33.2566 30.7784 33.1035 30.7499C32.833 30.9173 32.6977 31.1131 32.6977 31.3374C32.6977 31.4727 32.76 31.5742 32.8846 31.6418C33.0128 31.7094 33.246 31.7433 33.5842 31.7433H34.6149C35.2664 31.7433 35.7613 31.8821 36.0996 32.1598C36.4378 32.4375 36.6069 32.8381 36.6069 33.3614C36.6069 34.0308 36.331 34.547 35.7791 34.9102C35.2273 35.2733 34.4298 35.4549 33.3866 35.4549C32.582 35.4549 31.9678 35.3125 31.5441 35.0277C31.1204 34.7429 30.9086 34.337 30.9086 33.81C30.9086 33.4469 31.0225 33.1407 31.2504 32.8915C31.4818 32.6458 31.804 32.4749 32.217 32.3788C32.0497 32.3076 31.9108 32.1937 31.8005 32.037C31.6936 31.8768 31.6402 31.7094 31.6402 31.535C31.6402 31.3142 31.7025 31.1273 31.8272 30.9742C31.9518 30.8211 32.1369 30.6698 32.3826 30.5203C32.0764 30.3886 31.8272 30.1749 31.6349 29.8794C31.4462 29.5804 31.3519 29.2314 31.3519 28.8327C31.3519 28.1918 31.553 27.6952 31.9553 27.3427C32.3612 26.9902 32.938 26.814 33.6857 26.814C33.853 26.814 34.0275 26.8264 34.209 26.8514C34.3942 26.8727 34.533 26.8959 34.6256 26.9208H36.671ZM32.0301 33.746C32.0301 34.0165 32.1512 34.2248 32.3933 34.3708C32.6389 34.5168 32.9825 34.5898 33.424 34.5898C34.1076 34.5898 34.6167 34.4919 34.9514 34.296C35.286 34.1002 35.4534 33.8403 35.4534 33.5163C35.4534 33.26 35.3608 33.0766 35.1757 32.9662C34.9941 32.8594 34.6541 32.806 34.1556 32.806H33.205C32.8454 32.806 32.5588 32.8897 32.3452 33.057C32.1351 33.2279 32.0301 33.4576 32.0301 33.746ZM32.5695 28.8327C32.5695 29.203 32.6638 29.4878 32.8525 29.6872C33.0448 29.8866 33.3189 29.9862 33.675 29.9862C34.4013 29.9862 34.7644 29.5982 34.7644 28.822C34.7644 28.4375 34.6737 28.142 34.4921 27.9355C34.3141 27.7254 34.0417 27.6204 33.675 27.6204C33.3118 27.6204 33.0359 27.7236 32.8472 27.9301C32.6621 28.1366 32.5695 28.4375 32.5695 28.8327Z" fill="#3E52BC"/>
<path fill-rule="evenodd" clip-rule="evenodd" d="M28.7775 21.7885C29.0599 21.5062 29.0599 21.0485 28.7775 20.7662L25.1116 17.1004C26.4777 15.5009 27.3025 13.4252 27.3025 11.1569C27.3025 6.09981 23.203 2.00024 18.1459 2.00024C13.0888 2.00024 8.98927 6.09981 8.98927 11.1569C8.98927 16.2139 13.0888 20.3135 18.1459 20.3135C20.4142 20.3135 22.4898 19.4887 24.0893 18.1227L27.7552 21.7885C28.0375 22.0708 28.4952 22.0708 28.7775 21.7885Z" fill="#3E52BC"/>
<path d="M15.007 6.00551C14.9 5.76866 15.0048 5.48819 15.2487 5.3986C16.0411 5.10765 16.884 4.97329 17.7305 5.00472C18.734 5.04199 19.7153 5.31127 20.5972 5.79144C21.4792 6.27161 22.238 6.9496 22.8139 7.77224C23.2998 8.46614 23.6444 9.24703 23.8301 10.0704C23.8872 10.324 23.7085 10.5642 23.4515 10.6029V10.6029C23.1945 10.6415 22.9568 10.4639 22.8966 10.2111C22.7345 9.53132 22.4454 8.88679 22.043 8.31204C21.5504 7.60851 20.9015 7.02868 20.1472 6.61804C19.3929 6.2074 18.5538 5.97711 17.6955 5.94524C16.9944 5.9192 16.2961 6.02618 15.6373 6.25899C15.3922 6.34558 15.114 6.24236 15.007 6.00551V6.00551Z" fill="white"/>
</svg>
