<svg width="22" height="20" viewBox="0 0 22 20" fill="none" xmlns="http://www.w3.org/2000/svg">
<path d="M3.23438 3.75V16.244" stroke="#FFC41F" stroke-width="1.24937" stroke-linecap="round"/>
<path d="M18.7031 7.5V16.25" stroke="#FFC41F" stroke-width="1.24937" stroke-linecap="round" stroke-linejoin="round"/>
<path d="M5.8125 1.25H12.2578" stroke="#FFC41F" stroke-width="1.24937" stroke-linecap="round" stroke-linejoin="round"/>
<path d="M5.8125 18.75H16.125" stroke="#FFC41F" stroke-width="1.24937" stroke-linecap="round"/>
<path d="M18.7031 16.25C18.7102 17.4986 17.4141 18.75 16.125 18.75" stroke="#FFC41F" stroke-width="1.24937" stroke-linecap="round" stroke-linejoin="round"/>
<path d="M3.23438 16.25C3.23438 17.5 4.52344 18.75 5.8125 18.75" stroke="#FFC41F" stroke-width="1.24937" stroke-linecap="round" stroke-linejoin="round"/>
<path d="M3.23438 3.74829C3.23438 2.5001 4.52344 1.27794 5.8125 1.2501" stroke="#FFC41F" stroke-width="1.24937" stroke-linecap="round" stroke-linejoin="round"/>
<path d="M18.6961 7.50561L12.2578 1.25" stroke="#FFC41F" stroke-width="1.24937" stroke-linecap="round" stroke-linejoin="round"/>
<path d="M12.2578 5C12.2618 6.2432 13.5521 7.5 14.8359 7.5" stroke="#FFC41F" stroke-width="1.24937" stroke-linecap="round" stroke-linejoin="round"/>
<path d="M12.2578 5V1.25" stroke="#FFC41F" stroke-width="1.24937" stroke-linecap="round" stroke-linejoin="round"/>
<path d="M14.8359 7.5H18.7031" stroke="#FFC41F" stroke-width="1.24937" stroke-linecap="round" stroke-linejoin="round"/>
<path d="M5.8125 16.25H9.67969" stroke="#FFC41F" stroke-width="1.25" stroke-linecap="round" stroke-linejoin="round"/>
<path d="M5.8125 13.75H12.2578" stroke="#FFC41F" stroke-width="1.25" stroke-linecap="round" stroke-linejoin="round"/>
<path d="M5.8125 11.25H9.67969" stroke="#FFC41F" stroke-width="1.25" stroke-linecap="round" stroke-linejoin="round"/>
</svg>
