<svg width="21" height="21" viewBox="0 0 21 21" fill="none" xmlns="http://www.w3.org/2000/svg">
<path fill-rule="evenodd" clip-rule="evenodd" d="M17.9693 9.2756C16.9948 8.59547 15.5091 7.85039 13.4221 6.80685L8.69739 4.44452C7.01917 3.6054 5.80316 2.99809 4.88537 2.62804C3.92583 2.24115 3.48676 2.20126 3.27518 2.25727C2.62352 2.42979 2.11457 2.93874 1.94205 3.5904C1.88604 3.80198 1.92593 4.24104 2.31282 5.20059C2.68286 6.11838 3.29018 7.33439 4.1293 9.01261C4.14255 9.03911 4.15564 9.06526 4.16858 9.09109C4.34772 9.44882 4.49573 9.74437 4.58818 10.0395L12.0751 10.0809C12.4994 10.0833 12.8415 10.4292 12.8391 10.8535C12.8368 11.2778 12.4909 11.6199 12.0666 11.6175L4.61263 11.5762C4.52313 11.8994 4.36446 12.2162 4.16858 12.6074C4.15564 12.6332 4.14254 12.6594 4.12929 12.6859C3.29018 14.3641 2.68286 15.5801 2.31282 16.4979C1.92593 17.4574 1.88603 17.8965 1.94205 18.1081C2.11456 18.7597 2.62352 19.2687 3.27518 19.4412C3.48676 19.4972 3.92583 19.4573 4.88537 19.0704C5.80316 18.7004 7.01916 18.0931 8.69738 17.254L13.4221 14.8916C15.5091 13.8481 16.9948 13.103 17.9693 12.4229C18.9484 11.7395 19.1885 11.2734 19.1885 10.8492C19.1885 10.4251 18.9484 9.95897 17.9693 9.2756ZM18.8487 8.01555C19.9333 8.77254 20.7251 9.63939 20.7251 10.8492C20.7251 12.0591 19.9333 12.9259 18.8487 13.6829C17.7707 14.4354 16.1826 15.2294 14.172 16.2346L9.34975 18.6458C7.71357 19.4639 6.44223 20.0995 5.45998 20.4956C4.51251 20.8776 3.63597 21.1263 2.88193 20.9267C1.69639 20.6128 0.770464 19.6869 0.456607 18.5013C0.256984 17.7473 0.505672 16.8707 0.887683 15.9233C1.28372 14.941 1.91938 13.6697 2.73746 12.0336L2.75491 11.9987C3.04151 11.4255 3.11445 11.2652 3.145 11.1108C3.1792 10.9381 3.1792 10.7604 3.14501 10.5876C3.11445 10.4333 3.04152 10.273 2.75491 9.69981L2.73745 9.66489C1.91937 8.02874 1.28372 6.75743 0.887683 5.77519C0.505671 4.82773 0.256986 3.95119 0.456611 3.19715C0.77047 2.01161 1.69639 1.08569 2.88193 0.771829C3.63597 0.572205 4.51251 0.820891 5.45998 1.2029C6.44223 1.59894 7.71355 2.23461 9.34972 3.0527L14.172 5.46384C16.1826 6.46911 17.7707 7.26313 18.8487 8.01555Z" fill="white"/>
</svg>
