<svg width="16" height="16" viewBox="0 0 16 16" fill="none" xmlns="http://www.w3.org/2000/svg">
<path d="M8 10C9.10457 10 10 9.10457 10 8C10 6.89543 9.10457 6 8 6C6.89543 6 6 6.89543 6 8C6 9.10457 6.89543 10 8 10Z" stroke="black" stroke-miterlimit="10" stroke-linecap="round" stroke-linejoin="round"/>
<path d="M1.33331 8.5863V7.41297C1.33331 6.71963 1.89998 6.1463 2.59998 6.1463C3.80665 6.1463 4.29998 5.29297 3.69331 4.2463C3.34665 3.6463 3.55331 2.8663 4.15998 2.51963L5.31331 1.85963C5.83998 1.5463 6.51998 1.73297 6.83331 2.25963L6.90665 2.3863C7.50665 3.43297 8.49331 3.43297 9.09998 2.3863L9.17331 2.25963C9.48665 1.73297 10.1666 1.5463 10.6933 1.85963L11.8466 2.51963C12.4533 2.8663 12.66 3.6463 12.3133 4.2463C11.7066 5.29297 12.2 6.1463 13.4066 6.1463C14.1 6.1463 14.6733 6.71297 14.6733 7.41297V8.5863C14.6733 9.27963 14.1066 9.85297 13.4066 9.85297C12.2 9.85297 11.7066 10.7063 12.3133 11.753C12.66 12.3596 12.4533 13.133 11.8466 13.4796L10.6933 14.1396C10.1666 14.453 9.48665 14.2663 9.17331 13.7396L9.09998 13.613C8.49998 12.5663 7.51331 12.5663 6.90665 13.613L6.83331 13.7396C6.51998 14.2663 5.83998 14.453 5.31331 14.1396L4.15998 13.4796C3.55331 13.133 3.34665 12.353 3.69331 11.753C4.29998 10.7063 3.80665 9.85297 2.59998 9.85297C1.89998 9.85297 1.33331 9.27963 1.33331 8.5863Z" stroke="black" stroke-miterlimit="10" stroke-linecap="round" stroke-linejoin="round"/>
</svg>
