<svg width="21" height="21" viewBox="0 0 21 21" fill="none" xmlns="http://www.w3.org/2000/svg">
<path d="M18.2657 1.98829L1.98469 8.31429L6.81369 10.3203C8.22521 10.9058 9.34664 12.0276 9.93169 13.4393L11.9377 18.2673L18.2657 1.98829ZM20.1127 2.67029L13.7847 18.9513C13.3847 19.9813 12.2337 20.5083 11.2137 20.1313C10.9651 20.0395 10.7383 19.8973 10.5472 19.7137C10.3562 19.5301 10.2052 19.309 10.1037 19.0643L8.09669 14.2343C7.70626 13.2936 6.95856 12.5463 6.01769 12.1563L1.18969 10.1503C0.18569 9.73329 -0.27231 8.57429 0.16669 7.56029C0.27454 7.31243 0.430343 7.08835 0.625133 6.90094C0.819923 6.71353 1.04985 6.56649 1.30169 6.46829L17.5827 0.14029C17.9364 -0.00185326 18.324 -0.0369348 18.6975 0.0394048C19.071 0.115745 19.4138 0.30014 19.6833 0.569678C19.9528 0.839216 20.1372 1.18201 20.2136 1.55548C20.2899 1.92894 20.2548 2.3166 20.1127 2.67029Z" fill="#3E52BC"/>
</svg>
