<svg width="40" height="40" viewBox="0 0 40 40" fill="none" xmlns="http://www.w3.org/2000/svg">
<path d="M0 36.6665H40L33.3333 26.6665H6.66667L0 36.6665Z" fill="#95A5A6"/>
<path d="M36.6663 6.6665H3.33301V34.9998H36.6663V6.6665Z" fill="#F1C40F"/>
<path d="M21.667 18.3331H6.66699V33.3331H21.667V18.3331Z" fill="#ECF0F1"/>
<path d="M33.333 19.9999H23.333V34.9999H33.333V19.9999Z" fill="#ECF0F1"/>
<path d="M36.6663 14.9999H3.33301V21.6665H36.6663V14.9999Z" fill="#F39C12"/>
<path d="M33.333 18.3331H23.333V19.9998H33.333V18.3331Z" fill="#BDC3C7"/>
<path d="M21.667 18.3331H6.66699V21.6665H21.667V18.3331Z" fill="#BDC3C7"/>
<path d="M0 13.3331V15.8331C0 17.1665 1.11928 18.3331 2.5 18.3331C3.88067 18.3331 5 17.1665 5 15.8331V13.3331H2.5H0Z" fill="#C0392B"/>
<path d="M5 13.3331V15.8331C5 17.1665 6.11933 18.3331 7.5 18.3331C8.88067 18.3331 10 17.1665 10 15.8331V13.3331H7.5H5Z" fill="#BDC3C7"/>
<path d="M10 13.3331V15.8331C10 17.1665 11.1193 18.3331 12.5 18.3331C13.8807 18.3331 15 17.1665 15 15.8331V13.3331H12.5H10Z" fill="#C0392B"/>
<path d="M15 13.3331V15.8331C15 17.1665 16.1193 18.3331 17.5 18.3331C18.88 18.3331 20 17.1665 20 15.8331V13.3331H17.5H15Z" fill="#BDC3C7"/>
<path d="M20 13.3331V15.8331C20 17.1665 21.12 18.3331 22.5 18.3331C23.88 18.3331 25 17.1665 25 15.8331V13.3331H22.5H20Z" fill="#C0392B"/>
<path d="M25 13.3331V15.8331C25 17.1665 26.12 18.3331 27.5 18.3331C28.88 18.3331 30 17.1665 30 15.8331V13.3331H27.5H25Z" fill="#BDC3C7"/>
<path d="M30 13.3331V15.8331C30 17.1665 31.12 18.3331 32.5 18.3331C33.88 18.3331 35 17.1665 35 15.8331V13.3331H32.5H30Z" fill="#C0392B"/>
<path d="M35 13.3331V15.8331C35 17.1665 36.12 18.3331 37.5 18.3331C38.88 18.3331 40 17.1665 40 15.8331V13.3331H37.5H35Z" fill="#BDC3C7"/>
<path d="M16.6667 6.6665H20V13.3332H15L16.6667 6.6665Z" fill="#ECF0F1"/>
<path d="M20 6.6665H23.3333L25 13.3332H20V6.6665Z" fill="#E74C3C"/>
<path d="M8.33333 6.6665H13.3333L10 13.3332H5L8.33333 6.6665Z" fill="#ECF0F1"/>
<path d="M13.3333 6.6665H16.6667L15 13.3332H10L13.3333 6.6665Z" fill="#E74C3C"/>
<path d="M26.6663 6.6665H23.333L24.9997 13.3332H29.9997L26.6663 6.6665Z" fill="#ECF0F1"/>
<path d="M31.667 6.6665H26.667L30.0003 13.3332H35.0003L31.667 6.6665Z" fill="#E74C3C"/>
<path d="M3.33333 6.6665H8.33333L5 13.3332H0L3.33333 6.6665Z" fill="#E74C3C"/>
<path d="M36.667 6.6665H31.667L35.0003 13.3332H40.0003L36.667 6.6665Z" fill="#ECF0F1"/>
<path d="M31.6667 21.6665H25V34.9998H31.6667V21.6665Z" fill="#3498DB"/>
<path d="M31.6663 26.6665H23.333V28.3332H31.6663V26.6665Z" fill="#ECF0F1"/>
<path d="M33.3337 19.9999H31.667V21.6665H33.3337V19.9999Z" fill="#BDC3C7"/>
<path d="M31.6667 19.9999H25V21.6665H31.6667V19.9999Z" fill="#2980B9"/>
<path d="M24.9997 19.9999H23.333V21.6665H24.9997V19.9999Z" fill="#BDC3C7"/>
<path d="M19.9997 19.9999H8.33301V31.6665H19.9997V19.9999Z" fill="#3498DB"/>
<path d="M21.667 24.9998H6.66699V26.6664H21.667V24.9998Z" fill="#ECF0F1"/>
<path d="M15.0007 19.9998H13.334V31.6664H15.0007V19.9998Z" fill="#ECF0F1"/>
<path d="M1.66699 6.66646H38.3337L32.222 3.33313H7.77866L1.66699 6.66646Z" fill="#ECF0F1"/>
<path d="M14.9997 19.9999H13.333V21.6665H14.9997V19.9999Z" fill="#BDC3C7"/>
<path d="M1.66699 4.99984H38.3337L32.222 1.6665H7.77866L1.66699 4.99984Z" fill="#BDC3C7"/>
<path d="M38.3337 4.99988H1.66699V6.66654H38.3337V4.99988Z" fill="#7F8C8D"/>
<path d="M31.6667 29.9999H25V34.9999H31.6667V29.9999Z" fill="#2980B9"/>
<path d="M40 36.6665H0V38.3332H40V36.6665Z" fill="#7F8C8D"/>
<path d="M8.33301 19.9999V21.6665H13.333V19.9999H8.33301ZM14.9997 19.9999V21.6665H19.9997V19.9999H14.9997Z" fill="#2980B9"/>
<path d="M8.33301 29.9999V31.6665H13.333V29.9999H8.33301ZM14.9997 29.9999V31.6665H19.9997V29.9999H14.9997Z" fill="#2980B9"/>
<path d="M3.33333 6.6665L2.5 8.33317H7.5L8.33333 6.6665H3.33333ZM11.6667 6.6665L11.25 8.33317H16.25L16.6667 6.6665H11.6667ZM20 6.6665V8.33317H23.75L23.3333 6.6665H20ZM26.6667 6.6665L27.5 8.33317H32.5L31.6667 6.6665H26.6667Z" fill="#C0392B"/>
<path d="M8.33333 6.6665L7.5 8.33317H12.5022L13.3333 6.6665H8.33333ZM16.6667 6.6665L16.25 8.33317H20V6.6665H16.6667ZM23.3333 6.6665L23.75 8.33317H27.5L26.6667 6.6665H23.3333ZM31.6667 6.6665L32.5 8.33317H37.5L36.6667 6.6665H31.6667Z" fill="#BDC3C7"/>
</svg>
